<?xml version="1.0" encoding="utf-8"?>
<!-- Generator: Adobe Illustrator 21.1.0, SVG Export Plug-In . SVG Version: 6.00 Build 0)  -->
<svg version="1.1" id="图层_1" xmlns="http://www.w3.org/2000/svg" xmlns:xlink="http://www.w3.org/1999/xlink" x="0px" y="0px"
	 viewBox="0 0 37 34" style="enable-background:new 0 0 37 34;" xml:space="preserve">
<style type="text/css">
	.st0{fill:#40220F;}
</style>
<g>
	<path class="st0" d="M34.3,9.9c-0.2,0-0.3,0-0.5,0c-3,0-5.9,0-8.9,0c-4,0.1-7.4,3.1-8,7.1c-0.4,2.4,0.1,4.7,1.5,6.7
		c1.7,2.3,4,3.5,6.9,3.5c2.8,0,5.7,0,8.5,0c0.1,0,0.3,0,0.4,0c0,0.1,0,0.1,0,0.2c0,1.1,0,2.2,0,3.2c-0.1,1.8-1.5,3.2-3.5,3.2
		c-0.1,0-0.3,0-0.4,0c-8.8,0-17.6,0-26.4,0c-1.2,0-2.2-0.4-3-1.4c-0.5-0.7-0.7-1.5-0.7-2.3c0-6.6,0-13.3,0-19.9c0-2.2,0-4.4,0-6.6
		c0-1.5,0.6-2.6,1.9-3.2C2.7,0.1,3.2,0,3.8,0c9.8,0,19.6,0,29.5,0c0.7,0,1,0.3,1.1,1c0.1,1.2-0.3,1.6-1.6,1.6c-8.6,0-17.2,0-25.9,0
		c-0.7,0-1.4,0.2-1.8,0.9c-0.7,1.1,0,2.6,1.4,2.8c0.2,0,0.3,0,0.5,0c8.6,0,17.3,0,25.9,0c0.1,0,0.3,0,0.4,0c0.5,0,0.9,0.4,0.9,0.8
		C34.3,8,34.3,8.9,34.3,9.9z"/>
	<path class="st0" d="M29.7,12.5c1.5,0,3,0,4.6,0c1.4,0,2.5,1,2.5,2.5c0,2.3,0,4.6,0,6.8c0,1.5-0.9,2.5-2.5,2.5c-3,0-6,0-8.9,0
		c-3.5,0-6.1-2.8-5.8-6.3c0.2-2.7,1.8-4.7,4.4-5.4c0.5-0.1,1-0.1,1.5-0.1C26.8,12.5,28.3,12.5,29.7,12.5z M25.7,21
		c1.4,0,2.5-1.1,2.5-2.5c0-1.4-1.1-2.5-2.5-2.5c-1.4,0-2.5,1.2-2.5,2.5C23.2,19.9,24.3,21,25.7,21z"/>
</g>
</svg>
