<?xml version="1.0" encoding="utf-8"?>
<!-- Generator: Adobe Illustrator 21.1.0, SVG Export Plug-In . SVG Version: 6.00 Build 0)  -->
<svg version="1.1" id="图层_1" xmlns="http://www.w3.org/2000/svg" xmlns:xlink="http://www.w3.org/1999/xlink" x="0px" y="0px"
	 viewBox="0 0 557 325" style="enable-background:new 0 0 557 325;" xml:space="preserve">
<style type="text/css">
	.st0{fill:#FFFFFF;}
	.st1{fill:#FFFFFF;stroke:#FFFFFF;stroke-miterlimit:10;}
</style>
<g>
	<g>
		<g>
			<path class="st0" d="M368.2,224.5c-31.8-4-63.6-6-95.7-4.5c-14,0.7-28.7,0.8-42.6,3.2c-15.3,2.6-22.7,14.2-24.8,28.8
				c-1.9,13.7-1.2,30.3,8.8,40.9c12,12.6,31.2,12.8,47.3,13.6c20.2,1,40.5,1.6,60.8,1.1c10.4-0.2,20.9-0.8,31.3-1.6
				c9.1-0.8,18.5-1.3,27.4-3.3c9-2,11.2-7.8,12.7-16.3c1.7-10.1,2.6-20.5,2.1-30.7c-0.7-15-9.2-34-27.3-31.7c-1.9,0.2-1.9,3.2,0,3
				c19-2.4,24.5,19.3,24.4,33.8c0,8.9-0.9,17.8-2.4,26.6c-0.9,4.8-1.9,9.2-6.9,11.3c-3.9,1.6-8.4,1.9-12.5,2.4
				c-34.7,4.3-69.8,4.2-104.7,2.5c-16-0.7-35.7,0.1-48.4-11.3c-11.2-10.1-11.8-27.9-9.4-41.8c1.2-6.8,3.6-13.9,8.8-18.7
				c6.4-5.8,15.5-6.3,23.6-6.9c11.9-0.9,23.7-1.8,35.6-2.3c30.7-1.2,61.3,0.9,91.7,4.7C370.1,227.7,370.1,224.7,368.2,224.5
				L368.2,224.5z"/>
		</g>
	</g>
	<g>
		<g>
			<path class="st0" d="M204.2,263.1c0.3,14.2,2,33,14.1,42.6c5.8,4.6,15.2,6,22.2,7.7c8.7,2,17.4,2.6,26.3,2.5
				c9.8-0.1,19.2,0.6,29,1.6c10,1.1,20.2-0.1,30.2-0.7c10-0.6,19.9-1.2,29.9-1.8c7.7-0.5,15.8-0.7,23.1-3.7
				c4.3-1.7,8.4-4.5,11.9-7.5c2.9-2.6,3.5-5.5,4-9.2c1.5-11.1,1.9-22.2,1.3-33.4c-0.1-1.9-3.1-1.9-3,0c0.4,8.5,0.4,16.9-0.4,25.4
				c-0.4,3.9-0.1,9.4-2,12.9c-2,3.6-7.9,6.8-11.7,8.5c-7.8,3.6-16.8,3.6-25.1,4.1c-8.6,0.5-17.3,1-25.9,1.6
				c-8.2,0.5-16.4,1.3-24.5,1.3c-8.2,0-16.3-1.8-24.5-2c-8.1-0.2-16.2,0.4-24.3-0.2c-8.6-0.6-16.9-2.9-25.1-5.3
				c-4.5-1.3-8.7-2.6-11.9-6.2c-3-3.4-5.2-7.8-6.7-12c-3-8.3-3.7-17.1-3.9-25.9C207.1,261.2,204.1,261.2,204.2,263.1L204.2,263.1z"
				/>
		</g>
	</g>
	<g>
		<g>
			<path class="st0" d="M212.3,292.5c1.6,3.1,3.1,6.2,4.7,9.4c0.9,1.7,3.4,0.2,2.6-1.5c-1.6-3.1-3.1-6.2-4.7-9.4
				C214.1,289.3,211.5,290.8,212.3,292.5L212.3,292.5z"/>
		</g>
	</g>
	<g>
		<g>
			<path class="st0" d="M221.6,300.9c0.5,2.8,1.7,5.2,3.5,7.4c1.2,1.5,3.3-0.6,2.1-2.1c-1.4-1.8-2.3-3.9-2.7-6.1
				C224.2,298.2,221.3,299,221.6,300.9L221.6,300.9z"/>
		</g>
	</g>
	<g>
		<g>
			<path class="st0" d="M228.6,304.2c1.1,2.3,2.1,4.5,3,6.9c0.7,1.8,3.6,1,2.9-0.8c-1-2.6-2.1-5.1-3.3-7.6
				C230.4,300.9,227.8,302.5,228.6,304.2L228.6,304.2z"/>
		</g>
	</g>
	<g>
		<g>
			<path class="st0" d="M235.2,304.6c0.5,2.6,1.6,5,3.2,7.2c1.2,1.5,3.8,0,2.6-1.5c-1.5-1.9-2.4-4.1-2.9-6.4
				C237.8,301.9,234.9,302.7,235.2,304.6L235.2,304.6z"/>
		</g>
	</g>
	<g>
		<g>
			<path class="st0" d="M242,306.1c1,1.2,0.9,3.1,1.5,4.5c0.6,1.4,1.5,2.5,3,3c1.8,0.6,2.6-2.3,0.8-2.9c-1.2-0.4-1.3-2.2-1.6-3.2
				c-0.3-1.3-0.7-2.5-1.6-3.5C242.8,302.5,240.7,304.6,242,306.1L242,306.1z"/>
		</g>
	</g>
	<g>
		<g>
			<path class="st0" d="M249,305.2c-0.1,3.6,1,7,3.1,9.8c1.1,1.5,3.8,0,2.6-1.5c-1.8-2.5-2.8-5.2-2.7-8.3
				C252.1,303.3,249.1,303.3,249,305.2L249,305.2z"/>
		</g>
	</g>
	<g>
		<g>
			<path class="st0" d="M256.7,306.7c0.8,3,2,5.9,3.4,8.7c0.9,1.7,3.5,0.2,2.6-1.5c-1.3-2.6-2.3-5.2-3.1-8
				C259.1,304,256.2,304.8,256.7,306.7L256.7,306.7z"/>
		</g>
	</g>
	<g>
		<g>
			<path class="st0" d="M263.9,307.6c0.8,3.4,2.8,6.2,5.7,8.2c1.6,1.1,3.1-1.5,1.5-2.6c-2.2-1.5-3.7-3.7-4.3-6.4
				C266.3,305,263.4,305.8,263.9,307.6L263.9,307.6z"/>
		</g>
	</g>
	<g>
		<g>
			<path class="st0" d="M272.3,307.5c0.5,3.6,1.4,7.7,5,9.3c1.8,0.8,3.3-1.8,1.5-2.6c-2.6-1.1-3.2-4.2-3.5-6.7
				C275,305.6,272,305.6,272.3,307.5L272.3,307.5z"/>
		</g>
	</g>
	<g>
		<g>
			<path class="st0" d="M282.9,309c0.9,2.8,2.3,5.2,4.2,7.4c1.3,1.5,3.4-0.7,2.1-2.1c-1.5-1.8-2.7-3.8-3.4-6.1
				C285.2,306.4,282.3,307.2,282.9,309L282.9,309z"/>
		</g>
	</g>
	<g>
		<g>
			<path class="st0" d="M292,307.9c0.3,3.3,1.8,6.2,4.4,8.3c1.5,1.2,3.6-0.9,2.1-2.1c-1.9-1.6-3.2-3.7-3.5-6.2
				C294.8,306,291.8,306,292,307.9L292,307.9z"/>
		</g>
	</g>
	<g>
		<g>
			<path class="st0" d="M300,307.6c-0.3,3.1,0.5,6.2,2.2,8.8c1,1.6,3.6,0.1,2.6-1.5c-1.4-2.2-2-4.7-1.8-7.3
				C303.2,305.7,300.2,305.7,300,307.6L300,307.6z"/>
		</g>
	</g>
	<g>
		<g>
			<path class="st0" d="M309.2,308c0.4,2.5,1,4.9,1.7,7.4c0.5,1.9,3.4,1.1,2.9-0.8c-0.7-2.4-1.2-4.9-1.7-7.4
				C311.8,305.3,308.9,306.1,309.2,308L309.2,308z"/>
		</g>
	</g>
	<g>
		<g>
			<path class="st0" d="M315.9,308.3c0.6,2.5,1.2,4.9,1.8,7.4c0.4,1.9,3.3,1.1,2.9-0.8c-0.6-2.5-1.2-4.9-1.8-7.4
				C318.3,305.7,315.5,306.5,315.9,308.3L315.9,308.3z"/>
		</g>
	</g>
	<g>
		<g>
			<path class="st0" d="M323.2,307.9c-0.2,2.3-0.1,4.5,0.3,6.8c0.3,1.9,3.2,1.1,2.9-0.8c-0.3-2-0.3-4-0.2-6
				C326.4,306,323.4,306,323.2,307.9L323.2,307.9z"/>
		</g>
	</g>
	<g>
		<g>
			<path class="st0" d="M327.7,306.6c0,2.7,0.4,5.3,1.2,7.8c0.6,1.8,3.5,1,2.9-0.8c-0.8-2.3-1.1-4.6-1.1-7
				C330.7,304.7,327.7,304.7,327.7,306.6L327.7,306.6z"/>
		</g>
	</g>
	<g>
		<g>
			<path class="st0" d="M334.4,306.6c-0.3,2.9,0.1,5.7,1,8.5c0.6,1.8,3.5,1,2.9-0.8c-0.9-2.5-1.2-5-0.9-7.7
				C337.5,304.7,334.5,304.7,334.4,306.6L334.4,306.6z"/>
		</g>
	</g>
	<g>
		<g>
			<path class="st0" d="M340.6,306.3c0.4,2.7,0.4,5.3,0.3,8c-0.1,1.9,2.9,1.9,3,0c0.1-3,0-5.9-0.4-8.8
				C343.2,303.6,340.3,304.4,340.6,306.3L340.6,306.3z"/>
		</g>
	</g>
	<g>
		<g>
			<path class="st0" d="M346.3,306c0.5,2.4,1.1,4.7,2,7c0.7,1.8,3.6,1,2.9-0.8c-0.9-2.3-1.5-4.6-2-7
				C348.8,303.3,345.9,304.1,346.3,306L346.3,306z"/>
		</g>
	</g>
	<g>
		<g>
			<path class="st0" d="M352.7,304.6c0.1,2.9,0.7,5.7,1.8,8.4c0.7,1.8,3.6,1,2.9-0.8c-1-2.4-1.6-4.9-1.7-7.6
				C355.6,302.6,352.6,302.6,352.7,304.6L352.7,304.6z"/>
		</g>
	</g>
	<g>
		<g>
			<path class="st0" d="M357.6,305.3c1.5,3.1,3.1,6,5,8.9c1.1,1.6,3.7,0.1,2.6-1.5c-1.9-2.8-3.6-5.8-5-8.9
				C359.4,302,356.8,303.5,357.6,305.3L357.6,305.3z"/>
		</g>
	</g>
	<g>
		<g>
			<path class="st0" d="M365,306.4c1.1,2,2.3,3.9,3.4,5.9c1,1.7,3.6,0.2,2.6-1.5c-1.1-2-2.3-3.9-3.4-5.9
				C366.6,303.2,364,304.7,365,306.4L365,306.4z"/>
		</g>
	</g>
	<g>
		<g>
			<path class="st0" d="M371.3,304.3c1,2.1,2,4.2,3,6.3c0.8,1.7,3.4,0.2,2.6-1.5c-1-2.1-2-4.2-3-6.3
				C373.1,301.1,370.5,302.6,371.3,304.3L371.3,304.3z"/>
		</g>
	</g>
	<g>
		<g>
			<path class="st0" d="M376.4,303.3c1,1.7,2,3.4,2.9,5.2c1,1.7,3.6,0.2,2.6-1.5c-1-1.7-2-3.4-2.9-5.2
				C378,300.1,375.4,301.6,376.4,303.3L376.4,303.3z"/>
		</g>
	</g>
	<g>
		<g>
			<path class="st0" d="M381.3,302.3c0.4,1.7,1,3.4,1.7,5c0.3,0.7,1.4,0.9,2.1,0.5c0.8-0.4,0.9-1.3,0.5-2.1
				c-0.6-1.4-1.1-2.8-1.4-4.3C383.8,299.6,380.9,300.4,381.3,302.3L381.3,302.3z"/>
		</g>
	</g>
	<g>
		<g>
			<path class="st0" d="M384.3,300.6c0.6,0.9,1.1,1.8,1.7,2.7c0.4,0.7,1.3,1,2.1,0.5c0.7-0.4,1-1.4,0.5-2.1
				c-0.6-0.9-1.1-1.8-1.7-2.7c-0.4-0.7-1.3-1-2.1-0.5C384.1,299,383.9,299.9,384.3,300.6L384.3,300.6z"/>
		</g>
	</g>
</g>
<g>
	<path class="st0" d="M264,273.4c0.2,1.3,0.6,2.5,0.9,3.8c0.3-0.3,0.6-0.5,1-0.8c1-0.8,1.7-1.4,2-1.7l0.3,0.5c-0.3,0.3-1,0.9-2,1.6
		c-0.5,0.3-0.9,0.6-1.2,0.9c0.1,0.2,0.2,0.4,0.3,0.6l-2.5,0.7c-0.4-0.7-0.8-2.1-1.2-4.2l-0.5-0.3c-2.5,1.1-4.9,2.1-6.9,3l-1-2.1
		c3.7-1.6,6.2-2.7,7.5-3.2l0.4-0.5c-0.8-3.9-1.5-8.1-1.9-12.5l-0.4-0.3c0,0-2.9,0.3-8.5,0.7l-0.4,0.5c0,1.7-0.1,3.8-0.1,6.4l0.5,0.4
		c0.5-0.1,0.9-0.2,1.4-0.3c1.2-0.2,2.3-0.4,3.3-0.6l0.5,2.3c-2.6,0.4-4.3,0.7-5.2,0.9l-0.6,0.5c0,2.6-0.1,5.8-0.4,9.5l-2.4-0.1
		c0-0.2,0-0.4,0-0.6c-1.3-0.6-2.3-1.2-3.1-1.8l0.3-0.5c0.6,0.5,1.5,1,2.8,1.7c0.2-3,0.3-5.6,0.3-7.8l-0.3-0.3
		c-1,0.1-2.1,0.3-3.5,0.7l-0.5-2.3c1.4-0.4,2.7-0.7,4-0.8l0.4-0.4c0.1-2.9,0.1-5.3,0.2-7.2l-0.4-0.3c-1.2,0.1-2.4,0.2-3.4,0.3
		l-0.2-2.4c1-0.2,2.1-0.3,3.4-0.3l0.6-0.7c0.1-1.1,0.1-2.1,0.2-3l-0.3-0.3c-0.2,0-1.2,0.1-3.1,0.3l-0.3-2.3c3.5-0.4,5.3-0.6,5.3-0.6
		c0.9-0.2,1.6-0.3,2.3-0.3c0.8-0.1,1.5-0.2,2.2-0.3l0.3,2.4c-0.6,0.1-1.3,0.2-2.1,0.3c-0.5,0-0.9,0.1-1.3,0.2l-0.5,0.6
		c0,1-0.1,2.1-0.2,3.3l0.4,0.3c5-0.5,7.7-0.7,8.1-0.7l0.5-0.6c-0.1-2.1-0.2-4.1-0.3-6.2h2.5c0,1.8,0,3.8,0.3,6.1l0.5,0.4
		c2.3-0.1,4.4-0.2,6.5-0.2l0.2,2.3c-2,0.1-4.1,0.2-6.4,0.3l-0.5,0.6c0.5,4.5,1.1,8.2,1.7,11.2l0.5,0.3c0.3-0.2,0.6-0.3,0.8-0.4
		c1.2-0.5,2.3-1,3.2-1.5l1,2.1c-0.9,0.5-2,1-3.2,1.5c-0.5,0.1-1,0.4-1.4,0.6L264,273.4z M267.1,250.6c0.4,0.4,0.7,0.9,0.7,1.5
		c0,0.6-0.2,1.1-0.7,1.5c-0.5,0.4-1,0.6-1.6,0.6c-0.6,0-1.2-0.2-1.6-0.6c-0.4-0.4-0.6-0.9-0.6-1.5c0-0.6,0.2-1.1,0.6-1.5
		c0.4-0.4,1-0.6,1.6-0.6C266.2,250,266.7,250.2,267.1,250.6z"/>
	<path class="st0" d="M281.3,276.7c-0.2,0.9-0.4,1.7-0.5,2.5l-2.4-0.4c0.7-2.7,1.5-7,2.5-12.9c0-0.1,0-0.2,0-0.2l-0.3-0.3
		c0,0-0.1,0-0.1,0c-1.1,0-2,0.1-2.9,0.2l-0.1-2.4c1-0.1,2.1-0.2,3.4-0.2l0.6-0.6c0.4-2.8,0.7-5.2,0.9-7.2l-0.3-0.3
		c-0.4,0-0.7,0-0.9,0.1l-0.5,0.4c-0.3,2-0.5,3.2-0.6,3.8l-2.5-0.3c0-0.1,0-0.3,0.1-0.3c-0.5-0.4-0.9-0.8-1.2-1.2l0.5-0.4
		c0.2,0.2,0.5,0.5,0.9,0.9c0.6-2.8,0.9-5.5,0.9-8.2l2.4,0.3c0,0.6,0,1.4-0.1,2.3l0.4,0.4c0.2-0.1,0.5-0.1,0.8-0.1
		c0.7-0.1,1.5-0.2,2.4-0.3c1.1-0.2,2.9-0.3,5.4-0.5l0.3,2.3c-0.9,0.1-1.8,0.2-2.7,0.2c-0.7,0-1.5,0.1-2.3,0.3l-0.3,0.4
		c-0.2,1.8-0.5,4.3-1,7.5l0.5,0.4c1-0.1,3.1-0.2,6.3-0.2l0.1,2.3c-1.1,0-2.3,0-3.6,0c-1,0-2.2,0.1-3.4,0.2l-0.5,0.5
		c-0.5,2.9-1,5.4-1.4,7.6l0.4,0.5c3.1,1.1,5.7,2,7.7,2.5c-0.2-0.9-0.3-1.6-0.4-2l0.6-0.1c0.2,0.7,0.3,1.4,0.5,2.3
		c0.2,0,0.3,0,0.5,0.1l-0.8,2.6c-1.2-0.3-4.1-1.2-8.6-2.7L281.3,276.7z M293.1,252.9c1-0.4,2.1-0.6,3.3-0.9c2.8-0.5,4.5-0.5,5.1-0.1
		c0.1,0.1,0.2,0.4,0.1,0.7c-0.7,6.5-1,14.1-1.1,22.8c0.1,0,0.2,0,0.3,0v2.3c-2-0.1-4.1-0.1-6.5-0.1l-2.4,0.2
		c-0.2-6.3-0.6-13.1-1.2-20.7c0-1.9-0.1-3.6-0.2-5.1l2.4-0.2c0,0.3,0,0.5,0,0.8L293.1,252.9z M298,275.1c0.2-9.9,0.5-17.3,0.9-22.1
		l-0.3-0.3c-1.8,0-3.6,0.3-5.3,1l-0.4,0.4c0.1,0.9,0.1,1.9,0.1,2.9c0.5,6.1,0.9,12,1.1,17.9l0.4,0.4c0.5,0,1,0,1.6,0
		c0.5,0,1,0,1.5,0L298,275.1z"/>
	<path class="st0" d="M313.1,275.3c-0.2-3.2-0.5-6.2-0.7-9c0-0.4,0-0.9,0.2-1.5c0.5-1.7,0.9-3.4,1.3-5.1l-0.4-0.5
		c-1,0.1-1.9,0.3-2.8,0.5l-0.2-2.4c1.8-0.3,3.5-0.6,5.2-0.9c0.6-0.1,1,0,1.2,0.2c0.2,0.3-0.4,3.1-1.8,8.3c-0.1,0.2,0.1,3.7,0.6,10.5
		l0.6,0.9c0.7,0.1,1.5,0.2,2.5,0.3c0.1,0,0.2,0,0.4,0c-0.2-5-0.5-9.9-1-14.8c0-1.4-0.1-2.7-0.2-3.9l1.6-0.1v-0.1h0.8
		c0,0.2,0,0.4,0,0.6l0.4,0.3c0.2-0.1,0.4-0.1,0.7-0.1l0.4-0.5c0.3-0.7,0.6-1.5,0.8-2.3l-0.2-0.2c-0.5-0.1-1.9,0-4.1,0.3l-0.2-2.4
		c0.5-0.1,1.1-0.1,1.6-0.1l0.4-0.5c0-0.2-0.1-0.4-0.1-0.6c-0.2-0.9-0.3-1.6-0.3-2l2.4-0.4c0.1,1.4,0.2,2.3,0.4,2.7l0.6,0.5
		c2.7-0.4,4.7-0.6,6-0.6l0.5-0.7c0.2-0.7,0.4-1.5,0.5-2.2h2.4c-0.2,0.9-0.3,1.6-0.5,2.3l0.2,0.5c0.8-0.1,1.6-0.1,2.4-0.1l0.2,2.3
		c-0.1,0-0.2,0-0.3,0c-5.6,0.3-8.6,0.5-9,0.6l-0.5,0.6c-0.2,0.6-0.4,1.1-0.5,1.7l0.3,0.3c2.1-0.4,5-0.7,8.7-0.9c0.6,0,1,0.1,1.1,0.3
		c0.2,0.2,0.2,0.5,0.3,0.9c-0.2,2.8-0.3,6.3-0.6,10.5c-0.2,4.1-0.3,7.1-0.5,9.1l-2.6-0.1c0-0.1,0-0.1,0-0.2
		c-1.9-0.1-3.7-0.1-5.3-0.1c-1.2,0-2.3,0-3.3,0c-0.5,0-1,0-1.4,0l-0.3,1.5c0,0-0.1,0-0.1,0c-2.7-0.2-4.7-0.5-6.1-0.9
		c-0.9-0.3-1.9-0.4-3-0.3l-0.7-2.5c0.5,0,1,0,1.5,0L313.1,275.3z M315,251.4c0.4,0.4,0.7,0.9,0.7,1.5c0,0.6-0.2,1.1-0.7,1.5
		c-0.5,0.4-1,0.6-1.6,0.6c-0.6,0-1.2-0.2-1.6-0.6c-0.4-0.4-0.6-0.9-0.6-1.5c0-0.6,0.2-1.1,0.6-1.5c0.4-0.4,1-0.6,1.6-0.6
		C314,250.8,314.6,251,315,251.4z M321.1,263.5c0.4-0.1,0.8-0.1,1.2-0.2c1-0.1,2.2-0.2,3.4-0.4c2.1-0.3,4-0.5,5.7-0.6l0.7-0.5
		c0-0.6,0.1-1.2,0.1-1.7l-0.4-0.3c-2,0-3.6,0.1-4.9,0.3c-3.9,0.5-6,0.9-6.1,1l-0.5,0.6c0,0,0,0,0,0.1c0,0.4,0,0.8,0.1,1.3
		L321.1,263.5z M331.8,267.8c0-0.5,0.1-0.9,0.1-1.4c0-0.4,0-0.8,0-1.2l-0.5-0.5c-1.3,0-3.1,0.2-5.4,0.5c-1.3,0.2-2.4,0.4-3.4,0.4
		c-0.6,0-1.1,0.1-1.4,0.2l-0.5,0.5c0,0.5,0.1,1.1,0.1,1.7l0.6,0.4c0.4,0,0.8-0.1,1.2-0.1c1,0,2-0.1,3.1-0.2c2.1-0.2,4-0.3,5.5-0.2
		L331.8,267.8z M331.3,275c0.1-1.2,0.2-2.5,0.3-3.8l-0.7-0.7c-1.6,0-3.3,0.1-5,0.2c-1.2,0.1-2.2,0.2-3.1,0.2c-0.4,0-0.8,0-1.1,0.1
		l-0.5,0.6c0,1,0.1,2.1,0.2,3.3l0.6,0.5c0.2,0,0.5,0,0.8,0c1,0,2.1,0.1,3.3,0c1.8-0.1,3.5-0.1,4.9,0.1L331.3,275z"/>
	<path class="st0" d="M360.9,278.6c-2.3-1.2-4.4-2.7-6.4-4.7l0.5-0.6c1.8,2,3.7,3.4,5.7,4.4c-1.2-8.8-2.2-14.5-2.8-16.9
		c0-0.2-0.1-0.3-0.1-0.5c-0.2-1.3,1.2-3.8,4.2-7.6l-0.3-0.3c-3.8,0.2-9.5,1.1-17,2.5l-0.3-2.6c7.4-1.5,14.2-2.4,20.5-2.7
		c0.3,0,0.6,0.2,0.8,0.5c0.1,0.2,0.2,0.5,0.2,0.9c-0.4,0.7-1.9,2.9-4.4,6.7c-0.8,1.1-1.2,2-1.1,2.7c0.6,2.7,1.6,9,3,18.7l-2.4,0.3
		C361,279.1,360.9,278.8,360.9,278.6z"/>
</g>
<g>
	<g>
		<path class="st0" d="M99,207.6c0.3,1.3,0.7,2.6,1.2,3.8c-0.9,0.2-1.3,0.3-2.2,0.6c-0.6-1.3-1.5-4.3-2.5-9.1
			c-0.1,0-0.1-0.1-0.2-0.1c-0.1,0.1-0.1,0.2-0.2,0.3c0,0.2,0,0.4,0.1,0.6c0.6,4.2,1,7,1.2,8.4c-0.9,0.1-1.4,0.2-2.3,0.3
			c-0.1-1.5-0.6-4.3-1.2-8.5c0-0.2-0.1-0.4-0.1-0.6c-0.1-0.1-0.2-0.1-0.3-0.2c0,0.2,0,0.5,0,0.7c0,3.7,0,6.7-0.1,9
			c-0.9,0-1.4,0-2.3,0c0.1-2,0.1-5,0-9c0-0.1,0-0.2,0-0.3c-0.2,0-0.5,0.1-0.7,0.2c-0.2-0.9-0.3-1.4-0.5-2.3c0.7-0.2,2-0.5,3.9-0.8
			c0.1-0.2,0.2-0.3,0.3-0.5c0-0.2-0.1-0.4-0.1-0.5c-0.2-0.2-0.4-0.2-0.6-0.4c-2.3,0.6-3.5,0.9-3.6,0.9c-0.2-0.9-0.4-1.4-0.6-2.3
			c1.1-0.3,2.3-0.6,3.8-0.9c0.2-0.3,0.3-0.4,0.5-0.6c0-0.2-0.1-0.4-0.1-0.5c-0.2-0.2-0.3-0.2-0.6-0.4c-0.6,0.1-1.1,0.2-1.4,0.3
			c0,0,0.1,0.1,0.1,0.1c-1,0.2-1.5,0.3-2.4,0.5c-0.6-2.8-1.5-6.1-2.3-9.7c-0.2-0.9-0.3-1.7-0.5-2.4c1-0.2,1.5-0.3,2.5-0.5
			c0,0.2,0.1,0.4,0.1,0.6c0.7-0.3,1.6-0.6,2.9-1c1.8-0.6,3.3-1,4.3-1.2c0.6-0.1,1-0.1,1.3,0.2c0,0,0.1,0.1,0.2,0.2
			c0.5,0.5,1.1,3.9,1.7,10.1c0,0.1,0,0.2,0.1,0.4c0.1,0.3,0.2,0.5,0.3,0.9c-0.1,0-0.1,0-0.2,0.1c0,0,0,0,0,0.1
			c-1,0.2-1.5,0.3-2.5,0.4c-0.3,0.1-0.5,0.2-0.7,0.2c-0.1,0.2-0.2,0.2-0.3,0.4c0,0.2,0.1,0.4,0.1,0.7c0.2,0.1,0.4,0.2,0.6,0.4
			c0,0,1.1-0.3,3.2-0.7c0.2,0.9,0.4,1.4,0.6,2.3c-2.1,0.5-3.3,0.7-3.4,0.8c-0.2,0.2-0.3,0.4-0.4,0.6c0,0.1,0.1,0.3,0.1,0.4
			c0.3,0.2,0.5,0.3,0.8,0.4c0.2-0.1,1.3-0.3,3.4-0.6c0.2,0.9,0.3,1.4,0.4,2.3c-0.6,0.1-1.2,0.2-1.8,0.3c-0.2,0.3-0.3,0.5-0.4,0.8
			c0.1,0.5,0.3,1.1,0.4,1.6c0.4,0.2,0.5,0.3,0.9,0.4c0.4,0,0.8-0.1,1-0.1c-0.2-0.5-0.3-0.7-0.4-1.2c-0.1-0.4-0.1-0.7,0.1-0.8
			c0.2-0.1,0.4,0.1,0.6,0.5c0.2,0.6,0.3,0.9,0.5,1.4c0.2,0,0.3,0,0.5,0c0.1,0.9,0.2,1.4,0.3,2.3c-1.1,0.1-1.8,0.2-2.2,0.2
			C99.2,207.2,99.1,207.3,99,207.6z M90.7,188.4c-0.1-0.7-0.3-1.4-0.4-2c-0.2-0.1-0.3-0.2-0.5-0.3c-0.5,0.1-0.9,0.3-1.2,0.4
			c-0.2,0.2-0.3,0.3-0.4,0.6c0,0.2,0.1,0.5,0.2,0.9c0.3,0.2,0.4,0.3,0.7,0.5c0.4,0,0.8,0.1,1.4,0.3
			C90.5,188.5,90.6,188.5,90.7,188.4z M91.5,192.4c0-0.2-0.1-0.5-0.1-0.7c-0.2-0.2-0.4-0.3-0.6-0.4c-0.7-0.2-1.2-0.3-1.2-0.3
			c-0.1,0.2-0.2,0.2-0.3,0.4c0.1,0.5,0.2,0.9,0.3,1.4c0.3,0.1,0.4,0.2,0.7,0.4c0.2-0.1,0.4-0.1,0.7-0.1
			C91.2,192.8,91.3,192.7,91.5,192.4z M94.7,186.3c-0.1-0.5-0.2-0.9-0.2-1.2c-0.1-0.1-0.2-0.2-0.4-0.3c-0.4,0.1-0.7,0.2-0.9,0.3
			c-0.2,0.3-0.2,0.5-0.4,0.8c0.1,0.7,0.3,1.5,0.4,2.2c0.2-0.3,0.5-0.5,0.8-0.8C94.2,186.9,94.4,186.7,94.7,186.3z M95.3,191.3
			c-0.1-0.5-0.1-1-0.2-1.6c-0.1-0.1-0.2-0.1-0.3-0.1c-0.3,0.2-0.5,0.5-0.7,0.8c-0.1,0.1-0.3,0.3-0.4,0.4c0.1,0.3,0.1,0.6,0.2,0.9
			c0.3,0.2,0.4,0.3,0.6,0.4c0.1,0,0.2-0.1,0.3,0C95,191.8,95.1,191.6,95.3,191.3z M113.7,205.6c0.2-0.1,0.3-0.1,0.5-0.2
			c0.3,0.9,0.4,1.4,0.6,2.3c-3.3,0.8-5.3,1.3-5.9,1.5c-0.9,0.3-1.8,0.6-2.5,0.7c-0.3,0.1-0.7,0.1-0.9,0.3c-0.3,0.1-0.5,0.1-0.8,0.1
			c0,0,0,0,0,0c-0.1,0-0.2,0-0.2,0c0,0,0,0-0.1,0c0,0-0.1,0-0.1,0c-0.1,0-0.2,0-0.2,0.1c-0.4,0.1-0.6,0.1-0.9,0.2
			c-0.6-2.4-1.2-4.5-1.7-6.1c-1.5-4.9-2.3-8.1-2.6-9.1c1-0.3,1.5-0.4,2.4-0.6c0,0.2,0.1,0.5,0.2,0.8c0.2,0.1,0.3,0.2,0.5,0.3
			c0.2-0.1,0.4-0.2,0.6-0.3c0.1-0.4,0.2-0.5,0.3-0.9c-1-4.5-2.1-9-3.1-13.5c1-0.2,1.5-0.3,2.5-0.5c0.2,0.9,0.4,1.9,0.6,3
			c0.1,0.7,0.4,1.6,0.6,2.7c0.3,0.2,0.4,0.2,0.7,0.4c0.7-0.4,2-0.9,3.7-1.6c0.9-0.3,1.7-0.6,2.4-0.8c0.4,0.9,0.6,1.3,1,2.2
			c-3.8,1.4-5.9,2.3-6.4,2.6c-0.2,0.2-0.3,0.4-0.5,0.6c0,0,0,0,0,0c0.3,1.1,0.6,2.4,0.9,4c0.2,0.1,0.3,0.1,0.6,0.2
			c0.1-0.1,0.1-0.1,0.2-0.1c0.2-0.1,0.4-0.2,0.5-0.2c0,0-0.1,0-0.1-0.1c0.3-0.1,0.5-0.2,0.9-0.3c0.1,0,0.2-0.1,0.2-0.1
			c0,0,0,0,0.1,0c1-0.5,2-0.9,3-1.2c0.5-0.2,0.9-0.2,1.2,0.1c0.3,0.2,0.5,0.5,0.6,1c0,0,0,0,0,0.1c0.1,1.9,0.3,4.3,0.5,7.2
			c0.1,1.9,0.2,3.5,0.3,4.8C113.3,205.4,113.5,205.5,113.7,205.6z M110.5,205.9c-0.1-1.8-0.2-4.1-0.4-6.9c-0.1-1.3-0.2-2.4-0.2-3.5
			c-0.2-0.1-0.4-0.2-0.6-0.3c-1.7,0.6-3.9,1.6-6.4,3.1c-0.2,0.3-0.3,0.5-0.6,0.8c0.8,2.4,1.6,5.2,2.4,8.3c0.3,0.1,0.5,0.2,0.9,0.3
			c0,0,0.1,0,0.2-0.1c0.8-0.2,1.7-0.4,2.6-0.7c0.7-0.2,1.3-0.4,1.9-0.5C110.3,206.2,110.4,206.1,110.5,205.9z"/>
		<path class="st0" d="M128.8,188.5c0.1,0.1,0.2,0.1,0.3,0.2c0.1-0.1,1.7-0.4,4.6-1c0.2,0.9,0.3,1.3,0.6,2.2c-0.3,0-0.5,0.1-0.7,0.2
			c-0.2,0.2-0.2,0.4-0.4,0.6c0.1,0.2,0.2,0.4,0.3,0.6c0.3,0.7,0.6,1.2,0.9,1.5c-0.7,0.5-1,0.7-1.7,1.2c0.2-0.1,0.4-0.1,0.6-0.2
			c3.3-0.7,5.6-1.3,6.9-1.7c-0.4-0.1-0.6-0.2-1.1-0.3c-1.8-0.3-2.8-0.4-2.9-0.4c0-0.2,0-0.4,0.1-0.6c0.4,0.1,1.1,0.2,2,0.3
			c0.1,0,0.1,0,0.2,0c0.1-0.3,0.3-0.5,0.4-0.7c-0.1-0.1-0.1-0.2-0.2-0.3c-1.4,0-2.7,0-3.8,0.2c0-0.9,0-1.4,0-2.3
			c1.2-0.1,2.8-0.2,4.7-0.2c0.3-0.2,0.4-0.4,0.7-0.6c0.3-0.7,0.6-1.3,0.8-2c-0.1-0.1-0.2-0.1-0.3-0.2c-2.1,0.4-4.3,1.1-6.7,2.3
			c-0.2-0.9-0.3-1.3-0.5-2.2c2.7-1.5,6-2.5,9.5-2.7c0.6,0,1,0.1,1.2,0.3c0.2,0.2,0.2,0.6,0,1c-0.5,1.3-1,2.5-1.6,3.7
			c0.1,0.1,0.2,0.2,0.3,0.3c0.6,0,1.1,0.1,1.5,0.1c0-0.1-0.1-0.2-0.1-0.3c-0.2-0.4-0.3-0.7-0.4-0.8c0.3-0.1,0.4-0.1,0.6-0.2
			c0.1,0.2,0.2,0.6,0.4,1c0.1,0.1,0.2,0.3,0.2,0.4c0.2,0,0.3,0,0.4,0c0,1-0.1,1.5-0.1,2.4c-0.9-0.2-2.1-0.3-3.6-0.3
			c-0.2,0.2-0.3,0.2-0.5,0.4c-0.2,0.4-0.4,0.7-0.5,1.1c1-0.4,2-0.8,2.9-1.2c0.2,1,0.4,1.4,0.6,2.4c-1.7,0.8-4.5,1.6-8.2,2.6
			c-0.1,0.1-0.1,0.2-0.2,0.4c0.3,0.1,0.5,0.2,0.9,0.4c0.8-0.2,3.8-0.8,9.2-1.8c0.2,0.9,0.3,1.4,0.6,2.3c-2,0.4-4.1,0.8-6.4,1.2
			c-0.9,0.1-1.7,0.3-2.6,0.5c-0.1,0.2-0.2,0.4-0.3,0.6c0,0,0,0,0,0c0.2,0.1,0.3,0.2,0.6,0.3c0.8-0.3,3.8-0.9,9-1.8
			c0.2,0.9,0.3,1.4,0.6,2.3c-2,0.4-4.2,0.9-6.3,1.2c-0.8,0.1-1.7,0.3-2.5,0.5c-0.2,0.3-0.3,0.4-0.4,0.7c0.3,0.8,0.4,1.9,0.4,3.1
			c-0.8,0-1.2,0.1-1.9,0.1c-0.2,0-0.4,0.1-0.6,0.1c-0.4,0-0.6,0-0.8,0c-2.8,0-5.8,0.3-9.2,0.9c0-0.2,0-0.4,0.1-0.6
			c0.3-0.1,0.7-0.1,1-0.2c2-0.3,4.9-0.6,8.5-0.7c0.2,0,0.3,0,0.4,0c0-0.6-0.1-1.4-0.2-2.3c-0.2-0.1-0.4-0.2-0.6-0.3
			c-0.2,0-0.3,0-0.5,0.1c-2,0.6-3.9,1-5.5,1.4c-1.9,0.4-3.6,0.8-5.1,1.3c-0.2-0.9-0.4-1.4-0.6-2.3c1.5-0.5,3.2-0.9,5.1-1.3
			c1.7-0.3,3.5-0.8,5.5-1.3c0.2-0.1,0.4-0.1,0.6-0.2c0.1-0.1,0.1-0.2,0.2-0.3c0-0.1-0.1-0.1-0.1-0.2c-0.4-0.1-0.6-0.2-1-0.3
			c-0.1,0-0.2,0-0.2,0c-2.1,0.6-3.9,1-5.5,1.4c-1.9,0.4-3.6,0.8-5.1,1.3c-0.2-0.9-0.4-1.4-0.6-2.3c1.5-0.5,3.3-0.9,5.1-1.3
			c1.7-0.3,3.5-0.8,5.6-1.3c0.1,0,0.1,0,0.2,0c0.1-0.2,0.1-0.2,0.2-0.4c-0.1-0.1-0.2-0.1-0.3-0.2c-0.1-0.1-0.2-0.1-0.3-0.1
			c-4.5,0.9-7.7,1.8-9.7,2.7c-0.4-0.9-0.5-1.4-0.9-2.3c1.9-0.8,5.1-1.7,9.6-2.6c-0.2-0.3-0.5-0.7-0.7-1.2c-0.1,0-0.2-0.1-0.3-0.1
			c-1.4,0.6-2.8,1.2-4.1,1.7c-2,0.8-3.4,1.2-4,1.2c-0.2,0-0.4-0.1-0.4-0.2c-0.1-0.7-0.1-1.5-0.1-2.3c0-0.1,0-0.2,0-0.3
			c-0.1-0.1-0.2-0.1-0.4-0.2c-0.4,0-0.7,0.1-0.9,0.2c-0.2-0.9-0.4-1.3-0.6-2.2c0.9-0.3,2.6-0.7,5.2-1.3c0.1-0.1,0.1-0.1,0.2-0.2
			c-0.1-0.1-0.2-0.1-0.3-0.2c-1.1,0.2-2.4,0.5-4,0.9c0,0,0-0.1,0-0.1c-0.3-1.2-0.6-2.1-0.9-2.9c-0.6-1.7-1-3.2-1.4-4.3
			c0.9-0.3,1.4-0.4,2.3-0.6c0,0.1,0.1,0.3,0.1,0.4c0.2-0.2,1-0.5,2.4-0.9c0-0.1-0.1-0.2-0.1-0.3c-0.2-0.1-0.3-0.2-0.5-0.3
			c-2,0.4-3.4,0.8-4.4,1.1c-0.2-0.9-0.4-1.3-0.6-2.2c1-0.4,2.5-0.8,4.5-1.1c0.2-0.2,0.2-0.3,0.4-0.5c0-0.2-0.1-0.4-0.1-0.7
			c0.8-0.2,1.2-0.2,2-0.4c0,0,0-0.1,0-0.1c0,0,0.1,0,0.1,0c0.2,0,0.2,0,0.4-0.1c0,0.1,0,0.3,0.1,0.4c0.2,0.1,0.4,0.2,0.6,0.4
			c0.5-0.2,1-0.3,1.5-0.3c1.2-0.2,2.4-0.5,3.5-0.7c0.2,0.9,0.3,1.3,0.6,2.2c-1.1,0.2-2.3,0.5-3.5,0.8c-0.6,0.1-1.2,0.2-1.7,0.4
			c-0.1,0.2-0.2,0.3-0.3,0.5c0,0.1,0,0.2,0.1,0.3c1.7-0.5,3.1-0.9,4.1-1.1c0.5-0.1,0.9,0,1.2,0.2c0.2,0.2,0.4,0.4,0.5,0.7
			c0.1,0.4,0.1,2.2,0.1,5.3c0.1,0.6,0.2,0.9,0.4,1.5c-1,0.2-2,0.4-3,0.6c-0.3,0.1-0.7,0.1-1,0.2C129,188.3,128.9,188.4,128.8,188.5z
			 M123.1,184.6c0.5-0.2,1.1-0.3,1.7-0.4c0.1-0.1,0.1-0.2,0.2-0.3c0-0.1,0-0.2,0-0.2c-1.2,0.3-1.9,0.6-2.2,0.8
			C122.9,184.5,123,184.5,123.1,184.6z M123.4,187.1c0,0.1,0,0.1,0.1,0.1c0.2-0.1,0.9-0.2,2.1-0.4c-0.3-0.2-0.4-0.2-0.6-0.4
			c-0.2,0-0.3,0.1-0.5,0.1c-0.3,0.1-0.7,0.1-0.9,0.3C123.5,186.9,123.5,187,123.4,187.1z M125.9,194.2c0.3-0.1,0.6-0.2,0.9-0.4
			c0.1-0.3,0.2-0.4,0.3-0.7c-0.1-0.5-0.2-0.9-0.2-1.3c-0.1-0.1-0.2-0.1-0.3-0.2c-0.4,0.1-0.7,0.1-1,0.2c-0.2,0.3-0.3,0.4-0.4,0.7
			c0,0.1,0,0.2,0,0.3c0,0.3,0,0.7,0,1C125.5,194,125.6,194.1,125.9,194.2z M130.4,182.4c0-0.2,0-0.3,0-0.4c-0.9,0.2-2,0.5-3.1,0.8
			c0,0,0,0.1,0,0.1c0.2,0.1,0.3,0.2,0.4,0.3c0.5-0.2,1.3-0.4,2.3-0.5C130.2,182.6,130.3,182.6,130.4,182.4z M130.1,185.1
			c-0.7,0-1.3,0.2-1.9,0.4c-0.1,0.1-0.1,0.2-0.2,0.3c0,0.1,0,0.2,0.1,0.3c0.8-0.2,1.6-0.4,2.3-0.5c0-0.1,0-0.2,0-0.3
			C130.2,185.2,130.2,185.2,130.1,185.1z M131,191.8c-0.2-0.4-0.3-0.7-0.4-0.9c-0.1-0.1-0.2-0.1-0.3-0.2c-0.2,0-0.5,0.1-0.7,0.1
			c-0.2,0.2-0.2,0.3-0.4,0.6c0,0.2,0.1,0.5,0.1,0.8c0.3,0.1,0.4,0.2,0.7,0.3c0.3-0.2,0.5-0.3,0.8-0.3C130.9,192,131,191.9,131,191.8
			z M139.4,177.5c-0.1,0-0.2,0-0.2,0.1c-1.8,0.7-2.8,1.1-2.9,1.2c-0.2,0.2-0.2,0.3-0.4,0.6c0.4,1.6,0.6,3.1,0.7,4.6
			c-1,0.1-1.5,0.2-2.6,0.4c-0.1-2.6-0.6-5.3-1.4-8.1c0.8-0.1,1.2-0.2,1.9-0.3c0.2,0,0.3,0,0.6-0.1c0,0.1,0.1,0.3,0.1,0.5
			c0.2,0.1,0.3,0.2,0.5,0.3c2-0.9,3.7-1.6,5.1-1.9c0.5-0.1,0.8,0,1,0.1c0.2,0.2,0.5,0.6,0.7,1.2c0.1,2.4,0.2,4,0.3,4.8
			c0.5-0.6,1-1.2,1.5-1.5c0.2,0.2,0.3,0.2,0.5,0.4c-0.8,0.6-1.4,1.2-1.8,1.9c0.1,0.2,0.1,0.4,0.2,0.5c-1,0.2-1.5,0.4-2.5,0.6
			c-0.2-0.8-0.4-2.4-0.6-5C139.8,177.7,139.7,177.6,139.4,177.5z"/>
		<path class="st0" d="M157.7,181.9c-1.1,0.2-2.1,0.5-3,0.7c-0.2-0.9-0.2-1.4-0.4-2.3c1.8-0.5,3.6-1,5.3-1.3c0.6-0.1,1-0.1,1.2,0.1
			c0.4,0.3,0,2.8-1,7.4c-0.1,0.4-0.1,0.9,0,1.6c0.5,3.1,0.8,6.6,1.2,10.3c0.2,0.2,0.3,0.3,0.5,0.5c0.2,0,1.9,0.1,5.1,0.3
			c-0.8-4-1.6-7.9-2.6-11.9c1-0.2,1.5-0.2,2.4-0.4c0,0.2,0.1,0.4,0.1,0.6c0.3,0.2,0.4,0.3,0.7,0.4c0.9-0.4,2.4-0.9,4.6-1.4
			c2.5-0.7,4.5-1.2,5.9-1.4c0.5-0.1,1,0,1.3,0.2c0.9,0.9,1.3,5.2,1.4,12.7c-1,0.1-1.5,0.2-2.5,0.3c0-0.5,0-1-0.1-1.5
			c-0.2-0.1-0.2-0.2-0.4-0.3c-2.1,0.3-5,1.3-8.9,2.8c-0.1,0.9-0.2,1.4-0.3,2.3c-2.8,0.1-5.1-0.1-7-0.4c-1.3-0.3-2.5-0.2-3.5,0
			c-0.4-1-0.6-1.4-0.9-2.4c0.4,0,0.8-0.1,1.2-0.1c0.2-0.2,0.3-0.3,0.4-0.5c-0.4-3.6-0.5-7.4-1.2-10c0-0.1,0.2-2.1,0.8-6
			C157.9,182,157.8,182,157.7,181.9z M158.3,173.8c0.5,0.3,0.7,0.8,0.8,1.3c0.1,0.5-0.1,1-0.5,1.5c-0.4,0.4-0.9,0.7-1.4,0.8
			c-0.6,0.1-1.1-0.1-1.6-0.4c-0.5-0.3-0.7-0.8-0.8-1.3c-0.1-0.5,0.1-1.1,0.4-1.5c0.4-0.4,0.9-0.7,1.4-0.7
			C157.3,173.4,157.8,173.5,158.3,173.8z M171.6,173c0.7-0.2,1.4-0.3,2-0.4c1.5-0.2,3-0.5,4.4-0.7c0.2,0.9,0.3,1.4,0.5,2.3
			c-5.4,0.9-8.4,1.5-8.8,1.6c-1.4,0.3-2.7,0.6-3.8,0.8c-1.3,0.2-2.5,0.5-3.5,0.8c-0.2-0.9-0.3-1.4-0.5-2.3c2.2-0.6,3.5-0.8,3.9-0.8
			c0.1-0.2,0.2-0.3,0.3-0.4c0-0.5,0.2-1,0.5-1.3c0.5-0.6,1.2-1,2-1.1c0.6-0.1,1.2,0.2,1.7,0.6c0.3,0.3,0.6,0.5,0.7,0.8
			C171.2,172.9,171.3,172.9,171.6,173z M166.1,178.4c1.1-0.2,2.4-0.3,3.8-0.6c1-0.2,3.9-0.7,8.7-1.3c0.1,0.9,0.2,1.4,0.4,2.3
			c-4.7,0.6-7.6,1.1-8.6,1.2c-1.4,0.3-2.7,0.5-3.8,0.6c-1.3,0.2-2.4,0.4-3.5,0.6c-0.2-0.9-0.2-1.4-0.4-2.3
			C163.7,178.7,164.8,178.6,166.1,178.4z M166.8,182.9c1.1-0.2,2.4-0.4,3.8-0.6c0.3,0,3.1-0.5,8.6-1.2c0.1,0.9,0.2,1.4,0.4,2.3
			c-5.4,0.7-8.3,1.1-8.6,1.2c-1.4,0.3-2.6,0.5-3.7,0.6c-1.2,0.2-2.4,0.4-3.4,0.6c-0.2-0.9-0.2-1.4-0.4-2.3
			C164.4,183.3,165.5,183.1,166.8,182.9z M177.8,195.2c-0.1-2.5-0.3-4.9-0.5-7.2c-0.2-0.1-0.3-0.2-0.5-0.3c-0.6,0.1-1.2,0.2-1.8,0.4
			c-4.6,1.1-7,1.8-7.1,2c-0.2,0.3-0.3,0.4-0.5,0.7c0.5,2.2,1,4.5,1.4,6.9c0.3,0.1,0.4,0.1,0.7,0.2c3.2-1.2,5.9-2.1,8.1-2.5
			C177.6,195.4,177.7,195.3,177.8,195.2z"/>
		<path class="st0" d="M202.8,184.2c0.1,0.4,0.1,0.8,0.2,1.3c0.1,0.6,0.2,1.3,0.3,2c0.2,0.1,0.3,0.2,0.4,0.3
			c1.1-0.2,4.5-0.6,10.1-1.1c0.1,0.9,0.2,1.4,0.3,2.3c-5.8,0.5-9.2,0.9-10.2,1.1c-0.1,0.1-0.2,0.2-0.3,0.3c0.1,1.2,0.2,2.5,0.4,4
			c0.2,0.1,0.3,0.2,0.5,0.3c1.4-0.2,4.9-0.4,10.4-0.5c0.1,0.9,0.1,1.4,0.2,2.3c-7.5,0.4-11.9,0.6-13.2,0.8c-2.1,0.2-4.1,0.4-5.8,0.5
			c-2,0.1-3.7,0.3-5.3,0.5c-0.1-0.9-0.1-1.4-0.2-2.4c1.6-0.2,3.4-0.4,5.3-0.5c1.5-0.1,3.3-0.3,5.2-0.4c0.2-0.2,0.3-0.4,0.5-0.6
			c-0.1-1.3-0.2-2.4-0.3-3.5c-0.2-0.1-0.3-0.2-0.4-0.3c-1.7,0.3-3.2,0.4-4.5,0.6c-1.8,0.2-3.5,0.5-5,0.8c-0.1-0.9-0.2-1.4-0.3-2.3
			c0.8-0.2,3.9-0.6,9.5-1.3c0.2-0.3,0.3-0.4,0.5-0.7c-0.1-0.7-0.2-1.4-0.2-1.9c-0.1-0.4-0.1-0.8-0.2-1.1c-0.1-0.1-0.2-0.1-0.3-0.2
			c-1.5,0.2-2.8,0.4-3.9,0.5c-1.6,0.2-3.2,0.4-4.6,0.7c-0.1-0.6-0.1-0.9-0.2-1.6c-0.1-0.8-1.2-5.2-3.2-13.1c1-0.2,1.5-0.3,2.5-0.5
			c0.1,0.2,0.1,0.5,0.2,0.8c0.2,0.1,0.2,0.1,0.4,0.2c0.9-0.4,2.6-0.8,4.9-1.1c5.2-0.9,10.2-1.6,14.6-1.9c0.6,0,1,0.1,1.2,0.4
			c0,0,0.1,0.1,0.1,0.2c0.4,0.6,0.2,4.6-0.7,11.7c0.2-0.1,0.4-0.1,0.6-0.1c0.1,0.9,0.2,1.4,0.3,2.3c-5.1,0.5-8.2,0.9-9.3,1
			C202.9,184,202.8,184.1,202.8,184.2z M192.6,176.9c0,0,2-0.4,6.1-1c0.2-0.2,0.2-0.4,0.4-0.6c-0.1-1-0.2-1.9-0.3-2.7
			c-0.2-0.1-0.2-0.2-0.4-0.3c-3.3,0.4-5.6,0.9-6.8,1.4c-0.1,0.2-0.2,0.2-0.3,0.4c0.2,0.7,0.4,1.6,0.7,2.7
			C192.3,176.8,192.4,176.9,192.6,176.9z M194,182.8c0.7-0.2,2.5-0.4,5.3-0.7c0.2-0.3,0.3-0.4,0.6-0.7c-0.2-1.1-0.3-2.1-0.4-2.9
			c-0.2-0.1-0.3-0.1-0.5-0.2c-4,0.7-6.1,1.1-6.2,1.1c0,0.1-0.1,0.1-0.1,0.2c0.2,0.8,0.4,1.8,0.7,2.9
			C193.7,182.6,193.8,182.7,194,182.8z M202,175.3c2-0.4,4.3-0.8,6.8-1c0.3-0.2,0.4-0.2,0.6-0.4c0.1-1,0.2-2,0.2-2.8
			c-0.1-0.1-0.2-0.1-0.4-0.2c-2.1,0.1-4.6,0.4-7.5,0.9c-0.2,0.2-0.3,0.3-0.4,0.5c0.1,0.8,0.2,1.7,0.2,2.7
			C201.8,175.1,201.9,175.2,202,175.3z M208.8,180.5c0.1-1,0.3-2.2,0.4-3.5c-0.1-0.1-0.1-0.2-0.2-0.3c-2.8,0.2-5,0.5-6.5,0.8
			c-0.2,0.3-0.3,0.5-0.4,0.8c0.1,0.8,0.2,1.8,0.4,2.8c0.2,0.1,0.3,0.2,0.4,0.4c2.2-0.4,4-0.6,5.5-0.6
			C208.5,180.7,208.6,180.7,208.8,180.5z"/>
		<path class="st0" d="M244.7,169c0.1,1.2,0.2,2.6,0.3,4c1.1,7.9,1.9,15.3,2.3,22.2c-1,0.1-1.5,0.1-2.5,0.2c0-0.1,0-0.3-0.1-0.3
			c-0.8-0.2-1.6-0.2-2.2-0.2c-0.5,0-0.9,0-1.3-0.1c-0.4-0.1-0.8-0.1-1.2-0.1c0-0.2,0-0.4,0.1-0.6c0.4,0,0.8,0,1.2,0.1
			c0.4,0.1,0.8,0.1,1.3,0.1c0.6,0,1.1,0,1.5,0.1c0.2,0,0.4,0.1,0.7,0.1c-0.1-1.4-1-9.8-2.6-25.1c-0.1-0.1-0.2-0.2-0.4-0.3
			c-2.1,0.1-4.9,0.4-8.3,1.1c-2.1,0.4-4.1,0.7-5.8,0.9c-2,0.2-3.8,0.5-5.3,0.9c-0.2-0.9-0.2-1.4-0.4-2.3c1.6-0.3,3.4-0.7,5.4-0.9
			c1.7-0.2,3.7-0.5,5.8-0.9c2.8-0.5,7.3-1.1,13.4-1.7c0.1,0.9,0.2,1.4,0.4,2.3c-0.7,0.1-1.3,0.1-1.9,0.3
			C244.8,168.8,244.7,168.9,244.7,169z M226.4,175.9C226.4,175.9,226.4,175.9,226.4,175.9c0.5-0.3,1-0.5,1.7-0.6
			c5.8-1.9,9.1-2.7,9.7-2.3c0,0,0,0,0.1,0.1c0.7,0.7,0.6,5.8-0.3,15.2c0.1,0,0.2,0,0.3,0c0.1,0.9,0.2,1.4,0.4,2.3
			c-4.5,0.6-6.8,1-6.8,1c-1.1,0.2-2.1,0.4-3,0.5c-1,0.1-2,0.3-2.8,0.5c-0.2-0.9-0.2-1.4-0.4-2.3c0.3-0.1,0.6-0.1,0.8-0.2
			c-0.3-2-0.6-3.8-0.9-5.2c-1.1-5.3-1.7-8.5-1.9-9.7c1-0.2,1.5-0.3,2.5-0.4c0,0.3,0.1,0.7,0.1,1.1
			C226.2,175.8,226.3,175.8,226.4,175.9z M235.1,188.4c0.5-4.9,0.7-9.6,0.7-14c-0.2-0.1-0.3-0.1-0.4-0.2c-0.3,0-0.5,0.1-0.8,0.2
			c-5.1,1.2-7.8,2.1-8.1,2.5c-0.1,0.1-0.1,0.2-0.2,0.3c0.9,4.1,1.7,8.2,2.3,12.1c0.2,0.1,0.3,0.2,0.5,0.4c3.5-0.7,5.4-1.1,5.9-1
			C235,188.4,235,188.4,235.1,188.4z"/>
		<path class="st0" d="M262.2,189.5c1.3-0.5,2.8-1.1,4.6-1.7c0.3,1,0.5,1.5,0.8,2.5c-3.6,1.2-7.2,2.5-10.6,4
			c-0.5-0.9-0.7-1.4-1.2-2.3c1.1-0.5,2.2-1,3.5-1.5c0.1-0.1,0.1-0.2,0.2-0.4c-0.5-8.3-1.1-16.5-1.6-24.7c1,0,1.5-0.1,2.5-0.1
			c0.1,1.5,0.1,3.2,0.2,5c0.4,6.3,1.1,12.8,1.3,18.9C262,189.4,262.1,189.4,262.2,189.5z M269,165.8c0,1.2,0,2.7,0.1,4.2
			c0.3,6.6,0.7,12.4,0.7,17.1c-1,0-1.5,0-2.5,0.1c0-4.7-0.4-10.5-0.7-17.1c-0.1-1.5-0.1-3-0.1-4.2C267.5,165.8,268,165.8,269,165.8z
			 M274.7,188.8c3.2,1,5.6,1.7,7.3,2.1c0.1-0.7,0.1-1.5,0-2.5c0.3,0,0.4,0,0.6,0c0,0.5,0.1,1.2,0,2c0,0.2,0,0.5,0,0.7
			c0.1,0,0.2,0,0.3,0.1c-0.3,1-0.4,1.5-0.7,2.6c-1.4-0.3-4.2-1.1-8.2-2.4c-0.1,0.1-0.2,0.1-0.4,0.2c-0.3,0.8-0.5,1.7-0.7,2.5
			c-1-0.1-1.5-0.2-2.5-0.3c1.4-5.1,2.5-9.5,3.3-13.2c0.8-3.5,1.5-7,2.2-10.1c0.5-2,1-3.9,1.6-5.6c1,0.2,1.5,0.3,2.4,0.6
			c-0.7,1.6-1.9,6.7-3.8,15.2c-0.6,2.4-1.2,5-1.9,7.8C274.5,188.6,274.6,188.6,274.7,188.8z"/>
		<path class="st0" d="M291.2,191.6c1.6-0.2,3.3-0.3,5.2-0.4c1.7-0.1,3.6-0.2,5.6-0.4c1.8-0.2,6.1-0.4,12.9-0.5
			c0.1,0.9,0.1,1.4,0.1,2.3c-2,0.1-4.2,0.1-6.4,0.1c-1.9,0-4.1,0.2-6.4,0.4c-2.1,0.2-3.9,0.4-5.6,0.4c-1.9,0.1-3.6,0.2-5.2,0.4
			C291.3,193,291.3,192.6,291.2,191.6z M302.3,189.5c-1.6,0.2-3.1,0.4-4.3,0.5c-0.8,0-1.5,0.1-2.2,0.3c-0.2,0-0.3,0-0.5,0
			c0,0,0,0,0,0c-0.1,0-0.1,0-0.2,0c-0.6,0.1-1,0.2-1.6,0.3c-0.3-1.4-0.8-3.9-1.5-7.3c-0.1-0.7-0.2-1.3-0.3-1.8
			c1-0.2,1.4-0.3,2.4-0.4c0,0.2,0.1,0.3,0.1,0.5c1.3-0.4,3.6-0.8,6.9-1.1c0-0.2,0-0.4,0-0.5c-1-0.2-1.4-0.3-2.4-0.4
			c-0.5-0.1-0.7-0.3-0.7-0.5c0-0.2,0.3-0.3,0.8-0.3c0.9,0.2,1.4,0.2,2.3,0.4c0-2.7,0-5.9-0.1-9.6c-1.4,0.2-2.7,0.3-3.8,0.3
			c0,0,0,0,0,0c-0.8,2.2-1.7,5.8-2.9,10.6c-1-0.1-1.6-0.1-2.6-0.2c0.9-3.8,1.9-7.3,2.8-10.2c-0.9,0.1-1.7,0.2-2.4,0.3
			c-0.1-0.9-0.2-1.4-0.3-2.4c1.6-0.3,3.3-0.4,5.2-0.5c1.2-0.1,2.5-0.2,4-0.3c0-1.3,0-2.6,0-3.9c1,0,1.5,0,2.5,0c0,1.2,0,2.4,0,3.6
			c1.9-0.3,5.9-0.5,12-0.7c0.1,0.9,0.1,1.4,0.2,2.3c-7.6,0.4-11.7,0.7-12.1,0.7c0,1.2,0.1,2.7,0.1,4.4c0,0.3,0,0.7,0,1
			c0.3,0,0.7,0,1,0.1c0.8,0.1,1.8,0.2,2.9,0.3c0.9,0.1,2.8,0.3,5.5,0.6c0-0.7-0.1-1.1-0.1-1.8c0-0.5,0.1-0.7,0.3-0.7
			c0.3,0,0.4,0.2,0.4,0.7c0,0.8,0.1,1.2,0.1,2c0.1,0,0.3,0,0.4,0c-0.1,0.9-0.2,1.4-0.3,2.3c-4.1-0.6-6.3-0.8-6.6-0.8
			c-1.1,0-2.1-0.1-2.9-0.3c-0.3,0-0.5-0.1-0.7-0.1c0,1,0,2,0,3.2c3.7-0.4,6.7-0.5,8.8-0.6c0.5,0,1,0.1,1.2,0.5
			c0.1,0.1,0.1,0.2,0.2,0.3c0.2,0.8-0.3,3.8-1.4,8.8c-1-0.2-1.5-0.2-2.5-0.4C307.4,189,304.9,189.2,302.3,189.5z M294.8,184.8
			c0.9-0.2,1.9-0.3,3-0.4c1.3-0.1,2.8-0.3,4.3-0.5c2.3-0.4,5.4-0.7,9-0.8c0-0.3,0.1-0.6,0.2-0.9c-1.1,0-2.2,0.1-3.5,0.1
			c-7.2,0.5-11.6,1-13.1,1.5C294.7,184.2,294.7,184.4,294.8,184.8z M295.4,187.9c0.7-0.1,1.5-0.2,2.3-0.2c1.3-0.1,2.8-0.2,4.3-0.4
			c2.6-0.3,5.4-0.6,8.3-0.6c0.1-0.4,0.1-0.7,0.2-1c-2.6,0.1-5.4,0.3-8.3,0.7c-1.6,0.2-3,0.5-4.3,0.5c-1,0.1-1.9,0.2-2.8,0.3
			C295.4,187.3,295.4,187.6,295.4,187.9z"/>
		<path class="st0" d="M345,193.1c-2.2-0.1-4.9-0.1-7.9,0.1c-1.5,0.1-3,0.2-4.2,0.2c-1.1,0-2.1,0-3,0.2c0,0,0,0.1,0,0.1
			c-0.4,0-0.5,0-0.9,0c-0.6-0.1-0.9-0.1-1.6-0.1c0.4-4,0.7-8.5,1-13.3c0-0.2,0-0.4,0-0.6c-0.1,0-0.1,0-0.2,0c-0.1,0.1-0.3,0.1-0.6,0
			c-0.3-0.1-0.5-0.2-0.8-0.3c0,0-0.1,0-0.1,0c-0.7-0.2-1-0.3-1.7-0.5c-0.4-0.2-0.5-0.3-0.5-0.5c0-0.2,0.3-0.2,0.7-0.1
			c0.6,0.2,1,0.3,1.6,0.5c0.3-1,0.6-2,0.9-3c-0.1-0.1-0.2-0.2-0.3-0.3c-0.7,0-1.3,0.1-1.9,0.2c-0.1-0.9-0.1-1.4-0.2-2.4
			c0.8-0.1,1.7-0.2,2.7-0.2c0.2-0.3,0.3-0.4,0.6-0.7c0-0.1,0.1-0.2,0.1-0.3c-0.1-0.1-0.2-0.2-0.3-0.4c-1.1,0-2.1,0.1-3,0.3
			c-0.1-0.9-0.1-1.4-0.2-2.4c1.1-0.1,2.3-0.2,3.5-0.3c0.2-0.2,0.3-0.3,0.5-0.6c0-0.2,0-0.3,0-0.5c-0.1-0.1-0.2-0.2-0.3-0.3
			c-1.3,0-2.5,0.1-3.6,0.3c-0.1-0.9-0.1-1.4-0.2-2.4c1.6-0.2,3.3-0.3,5.2-0.4c1.6-0.1,3.5-0.2,5.6-0.4c1.7-0.2,5.9-0.4,12.7-0.5
			c0.1,0.9,0.1,1.4,0.1,2.3c-8,0.2-13.5,0.6-16.5,0.9c-0.2,0.2-0.3,0.3-0.5,0.5c0.1,0.1,0.1,0.3,0,0.4c0.2,0.2,0.3,0.3,0.5,0.4
			c5.3-0.5,10.7-0.8,16.2-0.8c0.1,0.9,0.1,1.4,0.1,2.3c-7.9,0.2-13.5,0.5-16.8,0.8c-0.2,0.2-0.3,0.3-0.5,0.5
			c-0.1,0.2-0.1,0.3-0.1,0.5c0.2,0.2,0.3,0.2,0.5,0.4c6.1-0.5,11.8-0.7,17-0.7c0,0.9,0.1,1.4,0.1,2.3c-6.3,0.1-10.6,0.2-12.7,0.4
			c-2,0.2-3.8,0.3-5.3,0.4c-0.2,0.2-0.3,0.3-0.5,0.6c0,0,0,0,0,0c-0.1,0.2-0.2,0.4-0.2,0.6c0.3,0.2,0.4,0.2,0.7,0.4
			c4.8-0.8,10.1-1.1,15.5-1c0.6,0,1,0.2,1.1,0.4c0.1,0.2,0.2,0.5,0.2,0.8c0.3,9.7,0.4,15.4,0.4,17.3c-1,0-1.6,0-2.6,0.1
			c0-0.3-0.1-0.6-0.1-0.9C345.3,193.4,345.2,193.3,345,193.1z M344.8,187.2c-2.4,0-5.2,0.1-8.1,0.4c-1.5,0.2-3,0.4-4.2,0.4
			c-0.6,0-1.1,0-1.6,0.1c-0.2,0.2-0.4,0.3-0.6,0.5c-0.1,0.6-0.1,1.4-0.2,2.2c0.3,0.2,0.4,0.2,0.6,0.4c0.6-0.1,1.3-0.1,2-0.1
			c1.3,0,2.7-0.1,4.2-0.2c3.2-0.2,5.8-0.3,7.7-0.2c0.3-0.3,0.4-0.5,0.7-0.8c0-0.7-0.1-1.4,0-2.2C345.2,187.6,345,187.5,344.8,187.2z
			 M330.7,183.5c-0.1,0.5-0.1,1-0.1,1.6c0.2,0.2,0.3,0.4,0.6,0.6c0.4-0.1,0.8-0.1,1.2-0.1c1.2,0,2.7-0.2,4.2-0.3
			c2.9-0.3,5.6-0.5,8.3-0.5c0.2-0.2,0.3-0.3,0.6-0.5c0-0.1,0-0.5-0.1-1.1c-0.2-0.1-0.2-0.2-0.4-0.4c-2.1-0.1-4.6-0.2-7.4,0
			c-1.5,0.1-2.9,0.2-4,0.2c-0.9,0-1.7,0-2.4,0.1C330.9,183.3,330.8,183.4,330.7,183.5z M331.7,180.7c0.5-0.1,1.1-0.1,1.7-0.1
			c1.2,0,2.6,0,4.1-0.1c2.7-0.2,5.1-0.2,7.2-0.1c0.3-0.2,0.4-0.3,0.7-0.6c0-0.5,0-0.9,0-1.3c-0.1-0.1-0.2-0.1-0.3-0.2
			c-2.5-0.1-4.5-0.1-6.2,0c-4.1,0.3-6.6,0.5-7.4,0.8c-0.2,0.2-0.3,0.2-0.4,0.4c0,0.2-0.1,0.3-0.1,0.5
			C331.2,180.3,331.4,180.4,331.7,180.7z"/>
		<path class="st0" d="M369.5,189.8c-1.1,0-2.1,0-3,0c-1.1,0-2.1,0-3.1,0c0-0.9,0-1.4,0-2.4c1-0.1,2.9-0.1,5.8,0
			c0.2-0.2,0.3-0.3,0.5-0.5c0.1-4,0.1-8.9,0.1-14.4c-0.1-0.1-0.1-0.1-0.2-0.2c-1.8,0-3.4,0.1-4.7,0.2c-0.1,0.1-0.2,0.2-0.3,0.3
			c-0.2,1-0.3,2.1-0.5,3.2c-0.8,6.6-1.6,13.1-2.5,19c-1-0.1-1.5-0.2-2.4-0.3c1-6.2,1.7-12.6,2.5-19.1c0.1-1.1,0.3-2.1,0.4-3
			c-0.1-0.1-0.1-0.1-0.2-0.2c-1,0-2,0.1-2.8,0.2c0-1-0.1-1.4-0.1-2.4c1.7-0.2,3.5-0.3,5.5-0.3c1.5,0,3.2,0,5-0.1
			c0.2-0.2,0.3-0.3,0.5-0.6c0.1-1.3,0.1-2.4,0.2-3.5c1,0,1.5,0,2.5,0c0,1.1-0.1,2.3-0.2,3.6c0.1,0.1,0.2,0.1,0.3,0.2
			c1.6-0.1,5.3-0.2,11.3,0c0,0.9,0,1.4,0.1,2.3c-1,0-2,0-3,0c-0.1,0.1-0.2,0.1-0.3,0.2c0,1,0,2.7,0,4.9c0,3.7,0.1,5.9,0.1,6.5
			c0,0.1,0,0.2,0,0.4c-0.2,5.2,0.1,9.2,0.7,11.9c-1,0-1.5,0-2.4,0.1c-0.7-2.9-1-6.1-0.8-9.7c0.1-1.3,0.1-2.9,0.1-4.6
			c-0.1-3.2-0.2-6.4-0.1-9.5c-0.1-0.1-0.1-0.1-0.2-0.2c-0.9-0.1-2.6-0.1-5.3,0c-0.2,0.2-0.3,0.3-0.5,0.4c0,5.7,0,10.5-0.2,14.5
			c0.1,0.1,0.2,0.2,0.3,0.3c0.4,0,0.8,0,1.2,0c1.3,0.1,2.6,0.1,3.8,0.2c0,0.9,0,1.4-0.1,2.3c-1.2,0-2.5-0.1-3.8-0.2
			c-0.4,0-0.8,0-1.2,0c-0.1,0.1-0.2,0.2-0.4,0.4c-0.1,1.8-0.2,3.7-0.3,5.7c-1,0-1.5,0-2.5,0c0-0.3,0-0.7,0-1c-1.7-1.1-2.9-2.1-3.7-3
			c0.2-0.2,0.3-0.3,0.4-0.5c0.6,0.7,1.8,1.6,3.4,2.7c0-1.5,0.1-2.9,0.1-4.1C369.6,189.9,369.6,189.8,369.5,189.8z"/>
		<path class="st0" d="M390.4,194.9c0.2-0.2,0.3-0.3,0.4-0.4c0.2,0.3,0.6,0.6,1.2,1c0.4-2.2,1.4-9.9,3.1-23.1c-0.2,0-0.4,0-0.5,0
			c0-0.9,0-1.4,0-2.4c0.8-0.1,3.6,0,8.4,0.1c0.2-0.1,0.3-0.2,0.5-0.3c0.2-0.4,0.4-0.8,0.8-1c0.6-0.5,1.3-0.7,2.2-0.6
			c0.8,0.1,1.4,0.6,2,1.7c0.2,0.1,0.3,0.2,0.4,0.3c0.9-0.1,4.3,0.1,10.2,0.5c0,0.9,0,1.4-0.1,2.3c-8.1-0.4-15.1-0.6-21-0.6
			c-0.2,0.1-0.2,0.2-0.4,0.3c-0.2,1.1-0.4,2.3-0.6,3.6c-1.1,8.3-1.9,15.4-2.8,20.8c-1-0.1-1.5-0.2-2.4-0.3c0-0.2,0-0.3,0.1-0.5
			C391.3,195.7,390.8,195.3,390.4,194.9z M400.2,184.4c0.8-0.2,1.6-0.3,2.3-0.3c0.1-0.1,0.2-0.2,0.3-0.4c0-1.3,0.1-2.5,0.1-3.4
			c0-3.1,0-5.6,0.1-7.5c1,0,1.5,0,2.5,0.1c-0.1,1.9-0.1,2.9-0.1,3.1c0.2,0.2,0.3,0.3,0.6,0.5c0.4,0,0.7,0,1.1,0c1,0,2.1,0,3.2-0.1
			c0.8,0,3.3-0.1,7.4,0c0,0.9,0,1.4,0,2.4c-4.2-0.1-6.6-0.1-7.4,0c-1.2,0.1-2.3,0.1-3.2,0.1c-0.5,0-0.9,0-1.3,0
			c-0.2,0.2-0.2,0.2-0.4,0.4c0,1.6,0,3.1-0.1,4.3c0.2,0.1,0.3,0.2,0.4,0.4c3.5-0.2,7-0.1,10.4,0.1c0.6,0,0.9,0.2,1.2,0.6
			c0,0.1,0.1,0.2,0.1,0.3c0.2,0.8-0.7,4.4-2.7,10.8c0.2,0,0.3,0,0.5,0c-0.1,0.9-0.1,1.4-0.1,2.3c-5.3-0.4-8.1-0.5-8.4-0.5
			c-1.4,0-2.6,0-3.7-0.1c-1.3-0.1-2.4-0.1-3.4-0.1c0,0,0,0,0-0.1c-0.5,0-0.8,0.1-1.3,0.1c-0.1-0.6-0.4-5.3-1.1-13.9
			c1-0.1,1.5-0.1,2.5-0.1c0,0.2,0,0.5,0,0.7C399.8,184.1,400,184.2,400.2,184.4z M412.1,195.1c1-3,1.8-5.8,2.5-8.3
			c-0.1-0.2-0.2-0.2-0.4-0.4c-0.8,0-1.8-0.1-2.8-0.1c-5.8-0.2-9.5,0-11.1,0.4c-0.2,0.2-0.3,0.3-0.5,0.5c0.3,3.5,0.5,5.9,0.6,7.2
			c0.2,0.2,0.3,0.3,0.5,0.4c0.6,0,1.3,0,1.9,0c1.1,0.1,2.4,0.2,3.7,0.2c1.4,0,3.1,0.1,5.1,0.2C411.9,195.2,412,195.2,412.1,195.1z"
			/>
		<path class="st0" d="M429.6,182.6c0,5.1-0.3,10.9-0.9,17.4c-1,0-1.5-0.1-2.5-0.1c0.4-5.5,0.5-11.2,0.8-16.4c0.1-1.5,0.2-2.9,0.3-4
			c1,0,1.5,0.1,2.5,0.1c0,0.1,0,0.2,0,0.3c0.5-0.1,1-0.1,1.5-0.1c0.2-0.2,0.4-0.4,0.6-0.6c-0.2-1.8-0.3-2.9-0.3-3.3
			c-0.1-0.2-0.2-0.2-0.3-0.4c-1.2-0.1-2.3-0.1-3.4-0.1c0-0.9,0.1-1.4,0.1-2.4c1.8,0,4.7,0.1,8.6,0.5c0.3-0.2,0.4-0.3,0.7-0.5
			c0.2-0.4,0.4-0.7,0.8-0.9c0.6-0.5,1.4-0.7,2.2-0.6c0.6,0.1,1.1,0.4,1.5,1c0.2,0.3,0.4,0.5,0.4,0.8c0.3,0.2,0.5,0.3,0.8,0.4
			c1.4,0,4.7,0.3,10,0.9c-0.1,0.9-0.1,1.4-0.2,2.3c-1.2-0.2-2.5-0.3-3.8-0.3c-0.2,0.2-0.4,0.3-0.6,0.5c-0.2,0.6-0.5,1.5-0.9,2.7
			c0.2,0.2,0.2,0.3,0.4,0.5c1,0.1,2,0.2,3,0.3c0.6,0.1,0.9,0.2,1,0.5c0.1,0.2,0.2,0.5,0.1,0.9c-0.4,2.8-1.1,6.5-1.7,10.9
			c-0.6,4.3-1.1,7.5-1.4,9.6c-0.8-0.1-1.2-0.1-2-0.2c0,0,0,0,0,0c-0.2,0-0.4,0-0.6-0.1c0-0.1,0-0.1,0-0.2c-1.4-0.8-2.3-1.3-2.7-1.6
			c0.1-0.2,0.2-0.3,0.3-0.5c0.6,0.5,1.4,1,2.5,1.5c0.5-2.7,1.1-6.5,1.8-11.3c0.1-0.7,0.2-1.4,0.3-1.9c-0.8,0.3-2.1,0.7-4.1,1.2
			c-2,0.5-3.6,0.8-4.6,0.9c-0.5-0.1-0.8-0.2-0.9-0.2c-0.2-0.1-0.3-0.1-0.3-0.2c1-4.5,1.5-6.9,1.5-7.3c-0.2-0.2-0.2-0.3-0.4-0.5
			c-1-0.1-1.9-0.1-2.8,0c-0.3,0.3-0.4,0.4-0.7,0.7c-0.2,2.9-0.5,5.2-0.9,7.1c-1-0.1-1.5-0.2-2.5-0.3c0-0.2,0-0.3,0.1-0.5
			c-0.3-0.1-0.5-0.2-0.9-0.3c-0.9-0.4-1.5-0.6-1.7-0.7c0.1-0.2,0.1-0.3,0.2-0.5c0.6,0.3,1.4,0.6,2.5,1c0.3-2.2,0.6-4.2,0.7-6.1
			c-0.2-0.1-0.3-0.2-0.4-0.4c-2.2,0-3.4,0.1-3.4,0.1C429.9,182.3,429.8,182.4,429.6,182.6z M445.3,197.1c0,0,0.1,0,0.1,0
			c-0.1,0.9-0.1,1.4-0.2,2.3c-4.7-0.5-7.3-0.7-7.8-0.7c-1.2,0-2.4-0.1-3.4-0.2c-1.2-0.1-2.2-0.1-3.2-0.2c0.1-0.9,0.1-1.4,0.2-2.4
			c0.1,0,0.2,0,0.3,0c-0.1-0.6-0.2-2.1-0.2-4.4c0-0.6,0-1.1-0.1-1.5c1,0,1.5,0,2.5-0.1c0,0.1,0,0.3,0,0.4c0.1-0.1,0.2-0.1,0.3-0.1
			c3.2-0.3,7-0.2,11.4,0.3c0.6,0.1,1,0.2,1.2,0.6c0.2,0.3,0.3,0.8,0.2,1.2C446.6,192.7,446.1,194.3,445.3,197.1z M435.1,179.6
			c3.8-0.1,6.9,0,9.4,0.3c0.3-0.2,0.4-0.3,0.7-0.5c0.2-0.5,0.3-0.9,0.4-1.2c0.2-0.6,0.3-1,0.4-1.3c-0.2-0.2-0.3-0.4-0.5-0.6
			c-0.3,0-4-0.2-10.9-0.5c-0.2,0.2-0.3,0.2-0.5,0.4c0.1,0.5,0.2,1,0.2,1.6c0.1,0.5,0.1,1,0.1,1.4
			C434.7,179.3,434.8,179.4,435.1,179.6z M443,196.3c0.3-1,0.6-1.9,0.8-2.7c-0.2-0.2-0.2-0.3-0.4-0.5c-3.4-0.3-6.5-0.4-9.3-0.3
			c-0.2,0.2-0.3,0.3-0.5,0.5c0,0.4,0.1,0.9,0.1,1.4c0,0.3,0,0.6,0,1c0.3,0.2,0.5,0.3,0.9,0.5c0.9,0.1,1.9,0.1,3,0.2
			c1.7,0.1,3.3,0.2,4.7,0.3C442.6,196.6,442.7,196.5,443,196.3z M442.2,189c3.3-0.9,5.4-1.5,6.4-1.9c0,0.3,0.1,0.4,0.1,0.7
			c0.3-1.9,0.6-3.6,0.8-5.1c-2.3-0.3-4.4-0.5-6.2-0.6c-0.2,0.2-0.3,0.3-0.6,0.4c0,0.3-0.5,2.3-1.2,5.9
			C441.8,188.7,442,188.8,442.2,189z"/>
		<path class="st0" d="M471.5,202.4C471.5,202.3,471.5,202.3,471.5,202.4c0,0.9-0.1,1.4-0.2,2.3c-1.9-0.2-3.8-0.4-5.5-0.4
			c-0.9,0-1.7,0-2.4-0.1c-0.8-0.1-1.6-0.1-2.2-0.1c0-0.5,0-0.7,0-1.2c0-0.1,0-0.2,0-0.3c0-0.1,0-0.2,0-0.3c0-0.6,0-3.9-0.1-9.8
			c0-0.3,0-0.6,0-0.8c-0.1,0-0.2,0-0.2,0.1c0-1-0.1-1.5-0.1-2.6c3.8-0.5,7.6-0.7,11.5-0.5c0.6,0,0.9,0.2,1.1,0.5
			c0.2,0.3,0.2,0.6,0.2,1C473.6,190.6,472.9,194.6,471.5,202.4z M467.3,177.8c5.1-0.5,10.9-0.4,17.1,0.5c0.6,0.1,1,0.3,1.1,0.6
			c0,0,0,0,0,0.1c0.3,0.8-0.4,2.9-1.8,6.3c0.2,0,0.4,0,0.5,0c-0.1,0.9-0.1,1.4-0.2,2.3c-6.7-0.6-10.4-0.9-11-1
			c-1.8,0-3.4-0.1-4.8-0.2c-1.6-0.1-3.1-0.2-4.5-0.2c0.1-0.9,0.1-1.4,0.2-2.4c0.1,0,0.2,0,0.3,0c0-4.4,0-6.9,0-7.5c1,0,1.5,0,2.6,0
			c0,0.3,0,0.7-0.1,1.1C467,177.6,467.1,177.7,467.3,177.8z M469,201.6c0.9-4.7,1.5-8.1,1.9-10c-0.2-0.2-0.4-0.3-0.6-0.5
			c-2.2-0.1-4.3-0.1-6.2,0.2c-0.1,0.2-0.2,0.3-0.3,0.6c0,0.2,0,0.5,0,0.7c0.1,3.3,0.1,6.3,0.1,8.9c0.2,0.2,0.3,0.3,0.4,0.5
			c1.1-0.1,2.6,0,4.3,0.2C468.7,201.9,468.8,201.8,469,201.6z M481.2,184.7c0.5-1,1-2.4,1.6-4c-0.1-0.1-0.2-0.1-0.3-0.2
			c-4.9-0.7-10-0.8-15.4-0.4c-0.1,0.2-0.2,0.3-0.4,0.5c0,0.4,0,0.9,0,1.4c0,0.5,0,1,0,1.6c0.2,0.2,0.3,0.2,0.5,0.4
			c0.4,0,0.8,0,1.1,0.1c1.4,0.2,3.1,0.2,4.8,0.3c2.8,0.1,5.3,0.3,7.5,0.6C480.9,184.9,481,184.8,481.2,184.7z M478.1,189.8
			c1.7-0.4,3.6-0.6,5.6-0.4c1,0.1,1.6,0.3,1.7,0.5c0.2,0.3,0.2,0.8,0.1,1.4c-1,2.9-2.2,7.8-3.7,14.7c-1-0.1-1.5-0.1-2.5-0.2
			c0,0,0,0,0-0.1c-0.6-0.1-1.3-0.2-2-0.2c-0.7,0-1.4,0-1.9-0.1c-0.6-0.1-1.3-0.1-1.8-0.1c0-0.5,0-0.8,0-1.4c0-0.1,0-0.2,0-0.3
			c0-0.2,0.1-0.3,0.1-0.6c0-0.7,0.5-5.6,1.3-14.7c0.9,0.1,1.3,0.1,2.2,0.2c0,0,0,0,0-0.1c0.1,0,0.2,0,0.3,0c0,0.1,0,0.2,0,0.3
			C477.7,189.4,477.8,189.5,478.1,189.8z M479.9,203c0.8-3.5,1.7-7.1,2.6-10.8c-0.2-0.2-0.3-0.3-0.5-0.5c-1.5,0-3,0.2-4.4,0.6
			c-0.2,0.1-0.3,0.2-0.5,0.3c-0.1,2.9-0.4,6.3-0.8,10.1c0.2,0.2,0.3,0.3,0.5,0.5c1.1,0,1.9,0,2.5,0.1
			C479.5,203.2,479.6,203.1,479.9,203z"/>
		<path class="st0" d="M515.9,202.2c0.5-0.3,1.1-0.7,1.8-1c0.5,0.8,0.8,1.2,1.3,2c-1.2,0.6-2.3,1.2-3.2,1.8
			c-0.2,0.3-0.3,0.4-0.4,0.6c0,2.7,0.1,4.5,0.2,5.4c0.6-0.9,0.9-1.3,1.5-2.1c0.2-0.3,0.4-0.4,0.6-0.3c0.2,0.1,0.2,0.3-0.1,0.6
			c-0.8,1.1-1.2,1.7-1.9,2.8c0,0.2,0.1,0.5,0.1,0.7c-1,0.1-1.6,0.1-2.6,0.2c-0.2-0.7-0.4-2.5-0.4-5.6c-0.1-0.1-0.2-0.1-0.4-0.2
			c-0.9,0.5-2,1.1-3.4,2.1c-0.5-0.8-0.8-1.2-1.3-2c2-1.3,3.6-2.2,4.8-2.8c0.2-0.3,0.2-0.4,0.4-0.6c-0.1-2.7,0-6.3,0.4-10.7
			c-0.2-0.2-0.3-0.3-0.5-0.5c-0.7-0.1-1.6-0.2-2.8-0.1c-0.4,0.3-0.6,0.5-0.9,0.8c-0.2,1.3-0.6,3.5-1.2,6.6c0.2,0.1,0.3,0.2,0.4,0.3
			c0.1,0,0.3-0.1,0.4,0c0.7-0.1,1.3-0.1,1.9-0.2c0.1,0.9,0.2,1.4,0.3,2.3c-0.6,0.1-1.2,0.2-1.9,0.2c-0.4,0-0.7,0-1.1,0.1
			c-0.3,0.4-0.5,0.6-0.9,1.1c-0.6,3.1-1.2,5.6-1.6,7.5c-1-0.2-1.5-0.3-2.5-0.4c0-0.1,0-0.2,0.1-0.4c-1-0.7-1.4-1.1-2.4-1.8
			c-0.3-0.2-0.4-0.4-0.3-0.6c0.1-0.2,0.3-0.1,0.6,0.1c0.9,0.7,1.3,1,2.2,1.6c0.4-1.7,0.9-4,1.4-6.6c-0.1-0.1-0.1-0.1-0.2-0.2
			c-0.8,0-1.6,0.1-2.2,0.1c-0.1-0.9-0.2-1.4-0.3-2.4c1.7-0.1,2.6-0.2,2.6-0.2c0.3-0.4,0.5-0.6,0.8-1c0.3-1.4,0.7-3.7,1.3-7
			c-0.1-0.1-0.2-0.2-0.3-0.3c-1-0.1-2-0.1-2.8-0.1c0-0.7,0-1.1,0.1-1.8c-0.4,1.9-0.8,4.1-1.2,6.4c-1,5.1-1.8,8.9-2.3,11.3
			c-1-0.2-1.6-0.3-2.6-0.4c0.1-0.4,0.1-0.7,0.2-1.1c-0.1-0.1-0.1-0.2-0.2-0.3c-1,0.4-1.8,0.8-2.6,1.3c0,0-0.1,0-0.1,0
			c0,0-0.1,0-0.1,0.1c-0.1,0.1-0.3,0.1-0.4,0.2c0.1-0.1,0.1-0.1-0.1,0c0,0,0,0,0,0.1c-0.5-0.1-0.8-0.2-1-0.2c-0.2,0-0.3,0-0.3,0
			c1.2-8.8,2.1-17.6,2.9-26.5c1,0.2,1.5,0.2,2.5,0.4c0,0.2-0.1,0.5-0.1,0.7c0.2,0.1,0.2,0.2,0.4,0.4c1.2-0.3,2.8-0.5,5-0.6
			c0.6,0,0.9,0.1,1.1,0.4c0.2,0.3,0.3,0.7,0.3,1c-0.1,1.6-0.8,3.8-1.3,6.1c0.8,0,1.8,0,2.8,0.1c0.3-0.2,0.4-0.4,0.7-0.6
			c0.2-1.4,0.3-2.6,0.4-3.7c-0.1-0.1-0.2-0.1-0.3-0.2c-1,0.1-1.7,0.1-2,0.1c0-1,0.1-1.5,0.1-2.5c0.7,0,1.9,0,3.6-0.2
			c1.9-0.2,3.1-0.3,3.6-0.5c0,1,0,1.5,0.1,2.4c-0.4,0.1-1.1,0.2-1.9,0.3c-0.3,0.3-0.4,0.5-0.7,0.8c-0.1,1-0.3,2.3-0.5,3.9
			c0.1,0.2,0.2,0.2,0.4,0.4c1.3-0.1,2.3-0.1,3.1,0.1c0.2-0.2,0.3-0.3,0.5-0.4c0.3-2.5,0.6-4.8,1-7.1c1,0.2,1.6,0.3,2.6,0.5
			c-0.2,0.8-0.5,3.1-1,6.7c0.2,0.2,0.3,0.4,0.6,0.6c1.4,0.1,2.8,0.2,4,0.3c-0.1,0.9-0.1,1.4-0.2,2.4c-1.3-0.1-2.7-0.2-4.1-0.3
			c-0.2,0.2-0.4,0.3-0.6,0.6c-0.1,2.3-0.3,5-0.4,8c0,0.2,0,0.5,0,0.8C515.6,202.1,515.7,202.1,515.9,202.2z M496.1,205.9
			c0.5-0.3,1.1-0.6,1.6-0.8c0.1-0.1,0.1-0.1,0.2-0.1c1.3-5.8,2.7-12.5,4.1-20.2c-0.2-0.1-0.3-0.2-0.5-0.3c-0.1,0-0.1,0-0.2,0
			c-1.6,0.2-2.6,0.3-3,0.5c-0.2,0.2-0.4,0.3-0.6,0.5c-0.6,6.5-1.4,13.2-2.2,20C495.8,205.8,495.9,205.8,496.1,205.9z M521.3,185.4
			c0.3,0.5,0.5,1,0.4,1.5c-0.1,0.5-0.4,1-0.9,1.3c-0.5,0.3-1.1,0.4-1.6,0.3c-0.6-0.1-1.1-0.4-1.4-0.9c-0.3-0.5-0.4-1-0.3-1.5
			c0.1-0.5,0.4-1,0.9-1.3c0.5-0.3,1-0.4,1.6-0.3C520.5,184.7,521,184.9,521.3,185.4z"/>
	</g>
</g>
<g>
	<g>
		<path class="st0" d="M67.2,109.6c-20-2.3-41.7-10.5-51.8-29.1c-4.8-8.7-6.8-19.3-4.4-29c2.4-10.2,9.6-17.5,18.4-22.6
			c9-5.2,19.2-8.8,29-12.3c11.2-4,23.1-7.2,35.1-6.4c19.7,1.4,37.2,15.6,42.7,34.6c6.1,20.7-4.1,43.7-22.5,54.4
			c-1.7,1-0.2,3.6,1.5,2.6c17.3-10.1,27.8-30.4,25.4-50.5c-2.4-19.6-17.4-36.6-36.2-42.2c-12.4-3.7-25.7-1.9-37.9,1.6
			C54.9,14.2,43,18.7,32,24.1c-9.4,4.6-18,11.2-22.2,21.1c-3.8,9.2-3.6,19.7-0.4,29c8.3,24.5,33.9,35.5,57.8,38.3
			C69.1,112.8,69.1,109.8,67.2,109.6L67.2,109.6z"/>
	</g>
</g>
<g>
	<g>
		<g>
			<path class="st0" d="M142.2,99.9c24.1,15.7,47.5,32.3,70.5,49.7c1.5,1.2,3-1.4,1.5-2.6c-22.9-17.4-46.4-33.9-70.5-49.7
				C142.1,96.2,140.6,98.8,142.2,99.9L142.2,99.9z"/>
		</g>
	</g>
	<g>
		<g>
			<path class="st0" d="M156.9,137.1c-5.1-13-9.6-26.2-13.5-39.6c-0.3,0.6-0.7,1.2-1,1.8c13.6-2.8,27.4-4.3,41.3-4.7
				c1.9-0.1,1.9-3.1,0-3c-14.2,0.4-28.2,2-42.1,4.8c-0.8,0.2-1.3,1.1-1,1.8c3.9,13.4,8.4,26.6,13.5,39.6
				C154.7,139.7,157.6,138.9,156.9,137.1L156.9,137.1z"/>
		</g>
	</g>
</g>
<g>
	<path class="st1" d="M541.5,139.1c0.2,0.2,0.6,0.3,0.7-0.1c1.3-2.4,2.4-5,3.2-7.6c1.8-2.5,3.1-5.3,2.8-8.7c-0.2-1.9-1-3.6-2.2-5.1
		c-0.9-2.2-2.9-3.5-5.1-4.1c-1.2-0.3-2.4-0.6-3.7-0.9c-0.5-0.1-1.3-0.4-1.9-0.2c-0.1,0-0.1,0-0.2,0c1.1-0.5,2-1.2,2.8-2.2
		c0.2-0.3,0-0.7-0.4-0.6c-1.7,0.2-3.2,1.7-4.9,1.7c1.2-2.8,4.1-5,6.8-6.2c0.5-0.2,0.1-0.9-0.3-0.7c-2.4,1-4.5,2.5-6.7,4
		c0.6-2,1.5-4.1,2.5-6.1c0.6-1.2,1.3-2.3,2.1-3.4c2.5-2.9,5.2-5.2,8.8-6.7c0.4-0.2,0.2-0.9-0.2-0.8c0,0-0.1,0-0.1,0c0,0,0,0,0,0
		c0,0,0,0,0,0c-3.7,1.2-6.7,3.7-9,6.8c-0.3,0.3-0.6,0.7-0.9,1.1c-0.8,1-1.6,2.1-2.4,3.1c-1.1,1.6-2.2,3.3-3.1,5
		c-4.2-3.7-10.6-3.9-15.9-3.9c-7.6,0.1-15.1,1.4-22.5,2.6c-2.7,0.4-5.5,0.6-7.5,2.8c-0.1,0.2-0.3,0.3-0.4,0.5c-1,1.3-1.6,3-0.9,4.6
		c0.2,0.5,0.5,0.9,0.9,1.3c1.7,2,4.4,2.9,6.9,3.5c1.2,0.3,2.4,0.4,3.6,0.5c-0.6,0.6-1.1,1.1-1.6,1.8c0,0,0,0.1-0.1,0.1
		c-0.1,0.2-0.3,0.3-0.4,0.5c0,0,0,0.1-0.1,0.1c-6.5,8.4-5.7,21,1.4,28.7c0,0,0,0.1,0.1,0.1c0.3,0.3,0.6,0.6,0.9,0.9
		c0.1,0.1,0.2,0.2,0.3,0.3c4.4,4.1,10,5.4,15.8,6.5c-0.1,0.1-0.1,0.1-0.1,0.2c0,0.3,0,0.6-0.1,0.8c0,0.5-0.1,1-0.1,1.5
		c0,0.6-0.1,1.1-0.2,1.7c-0.1,0.6-0.2,1.2-0.4,1.8c0,0-0.1,0-0.1,0.1c-0.2,0.2-0.4,0.3-0.6,0.4c-0.9,0.4-2.1,0.2-3,0.1
		c-1.3-0.1-2.6-0.4-3.9-0.6c-0.3,0-0.4,0.1-0.4,0.3c-0.2,0-0.3,0.1-0.4,0.2c-0.2,0.5-0.4,1-0.5,1.5c-0.4-1-1.2-2-1.7-2.8
		c-0.5-0.8-1.5-2.3-2.6-1.9c-1,0.3-1.2,1.8-1.4,2.7c-0.3,1.5-0.3,3.3-1.1,4.7c-0.1,0.1-0.1,0.3,0,0.4c0,0,0,0-0.1-0.1
		c-0.6-0.9-1.5-1.6-2.7-1.7c-0.3,0-0.6,0-0.9,0c-0.5,0.1-0.9,0.3-1,0.9c-0.1,0.4,0,0.7,0.1,1c0.4,1.1,1.9,1.4,3.2,1.3
		c0.3,0,0.7-0.1,0.9-0.1c0.3-0.1,0.4-0.3,0.3-0.5c0.2-0.1,0.3-0.3,0.2-0.6c0.2,0.2,0.4,0.2,0.6,0c1.2-2,0.9-4.4,1.7-6.5
		c0.5-1.3,1.6,0.3,2.1,0.9c0.6,0.9,1.9,2.6,1.9,3.8c0,0,0,0.1,0,0.1c-0.2,0.2-0.3,0.5,0,0.6c0.1,0,0.1,0.1,0.2,0.1
		c0,0.5,0,1.1,0.1,1.6c0,0,0,0-0.1,0c-0.5,0.1-0.4,0.9,0.1,0.8c0,0,0.1,0,0.1,0c0.2,0.9,0.6,1.8,1,2.6c-3.7,0.8-7.6,0.1-11.2-0.3
		c-0.1-0.3-0.1-0.6-0.2-0.9c-0.3-1-0.7-2-1.4-2.6c-0.8-0.7-2.2-1.1-3.1-0.4c-1,0.8-0.2,2.5,0.4,3.3c0.5,0.6,1.1,1.2,1.9,1.4
		c0.5,0.1,1,0.2,1.5,0.1c0.2,0,0.3-0.2,0.3-0.3c0.1,0.2,0.2,0.2,0.4,0.2c0,0,0.1,0,0.1,0c3.9,0.4,8,1.1,11.8,0.2
		c0.3,0.5,0.6,1,1,1.4c-0.1,0.2,0,0.5,0.3,0.5c0.1,0,0.2,0,0.3,0c1.3,0.1,2.6,0.2,3.9,0.3c0.5,0,1,0.1,1.6,0.1c0.3,0,0.6,0,0.9,0.1
		c2.6,0.2,5.2,0.4,7.7,0.6c0.3,0.1,0.6,0.3,0.9,0.3c0.2,0.1,0.4-0.1,0.5-0.2c0.3,0,0.6,0.1,0.9,0.1c0.1,0,0.2,0,0.3-0.1
		c0,0,0,0,0.1-0.1c1.1-1.4,1.8-2.9,2.3-4.5c0-0.1,0.1-0.2,0.1-0.3c0,0,0,0,0,0c0,0,0,0,0,0c1,1.4,2,3.4,3.6,4.3
		c-0.5,0-0.9,0.2-1.2,0.6c-0.1,0.1-0.1,0.4,0,0.5c0.2,0.2,0.4,0.3,0.6,0.4c0.4,0.1,0.5-0.4,0.4-0.6c0.5-0.2,1.1,0,1.5,0.1
		c0.2,0,0.3-0.1,0.4-0.2c0.1,0,0.1-0.1,0.2-0.1c0.5-0.5,2.1,0.8,2.5,1c0.7,0.4,1.4,1,2.2,1.1c0.5,0.1,0.6-0.7,0.1-0.8
		c-0.9-0.1-2.2-1.5-3.5-2c1.4-0.2,3.3,0.4,4.4,0.5c0.5,0.1,0.6-0.7,0.1-0.8c-1.9-0.2-4.9-1.4-6.4,0.4c0,0,0,0,0,0
		c0.1-0.2,0.1-0.5-0.2-0.6c-1.9-0.6-3.1-3.1-4.2-4.6c0,0,0-0.1-0.1-0.1c0,0-0.1-0.1-0.1-0.1c0.3-1.2,0.4-2.3,0.6-3.5
		c0.2,0,0.3,0.1,0.5,0.1c1.5,0.5,2.6,2.1,3.8,3.3c-1.1-0.2-2.1-0.2-3.1,0.4c-0.4,0.3-0.1,1,0.3,0.7c1.2-0.7,2.7-0.2,4-0.1
		c0.1,0,0.2,0,0.3-0.1c0.1,0.1,0.2,0.2,0.4,0.1c1.1-0.2,2.1-0.2,2.8,0.7c0.3,0.4,0.9-0.1,0.6-0.5c-0.7-1-1.8-1.2-3-1.1
		c0.4-0.9,1.8-1.3,2.7-1.3c0.5,0,0.4-0.8-0.1-0.8c-1.3,0.1-3.1,0.8-3.4,2.2c-1.8-1.2-3.1-3.8-5.3-4.4c-0.2,0-0.3-0.1-0.5-0.1
		c0.1-1.7,0.2-3.4,0.3-5.1c0-1,0.1-2,0.2-2.9c0-0.1,0-0.1,0-0.2c2.5-0.5,4.9-1.4,7-3.1c4.2-3.4,6.5-8.7,8-13.9
		c0-0.2,0.1-0.3,0.1-0.5C540.3,140.7,540.9,139.9,541.5,139.1z M490.3,169.1c-0.5-0.9,0.5-0.9,1.1-0.8c0.9,0.1,1.6,0.7,2,1.4
		C492.5,169.9,490.8,170,490.3,169.1z M486.9,169.7c0.9-0.2,1.8,0.7,2.2,1.4c0.4,0.7,0.6,1.4,0.7,2.2c0,0,0,0,0,0.1c0,0,0,0,0,0
		c-0.1-0.1-0.2-0.1-0.3-0.1c-1,0.3-1.8-0.3-2.4-1C486.7,171.7,485.7,169.9,486.9,169.7z M530.3,119.7c0.1,0.1,0.3,0.2,0.4,0.4
		c2,1.6,4.4,2.9,6.3,4.7c0.1,0.2,0.2,0.4,0.3,0.6c0.5,1.1,1,2.2,1.5,3.3c0,0,0,0,0,0C536.1,125.5,533.4,122.4,530.3,119.7z
		 M525.2,114.1c0-0.1,0-0.1,0-0.1c0.8,0.2,1.6,0.4,2.5,0.7c-0.1,0-0.2,0.1-0.2,0.2C526.3,114.9,525.1,114.8,525.2,114.1z
		 M513.2,116.4c-1.4,0.6-2.9,1-4.4,1.3c0.1-0.4-0.4-0.8-0.7-0.4c-0.1,0.2-0.2,0.4-0.3,0.6c-2,0.4-4.1,0.6-6.1,0.7
		c-1.7,0.1-3.5,0.2-5.3,0.1c0,0,0.1-0.1,0.1-0.1c0.6-0.5,1.1-0.9,1.8-1.3c0.3-0.2,0.6-0.4,0.9-0.6c5.5-0.6,10.9-2,16-4.1
		c1.1,0.2,2.3,0.3,3.4,0.5C517,114.5,514.9,115.7,513.2,116.4z M492.4,112.7c-0.6-0.3-0.3-0.7,0-1.1c0.9-1.1,2.3-1.6,3.6-1.8
		c2.9-0.4,6,0.5,8.8,1.1c0,0,0.1,0,0.1,0c-0.8,0.4-1.6,0.8-2.3,1.3c-0.4,0.2-0.7,0.5-1,0.7c-1.4,0.1-2.8,0.2-4.2,0.3
		C495.7,113.3,493.8,113.4,492.4,112.7z M516.8,108.1c2.3-0.6,4.5-1.6,6.9-1.7c-0.4,0.2-0.8,0.4-1.2,0.6c-0.1-0.2-0.4-0.3-0.5-0.2
		c-1.3,0.6-2.7,1.2-4,1.7c-0.6,0.1-1.2,0.3-1.8,0.5c-0.4,0-0.8-0.1-1.3-0.1c-0.6,0-1.2,0-1.8,0C514.3,108.7,515.6,108.4,516.8,108.1
		z M516.7,111.9c0.3-0.1,0.6-0.3,0.9-0.4c0,0,0,0,0,0c0.1,0,0.2-0.1,0.2-0.1c0.7-0.3,1.4-0.6,2.1-1c0.3,0.1,0.6,0.1,0.8,0.2
		c-0.4,0.6-0.8,1.2-1.3,1.7C518.5,112.2,517.6,112.1,516.7,111.9z M501,115.6c1.3-0.7,2.6-1.3,3.9-1.9c2.8-0.5,5.5-1.1,8.3-1.5
		c0.2,0,0.4,0.1,0.5,0.1C509.6,113.8,505.4,114.9,501,115.6z M506.4,111.2c0.7,0.1,1.4,0.1,2.1,0.2c-1,0.3-2,0.7-2.9,1.1
		c-0.8,0.1-1.6,0.3-2.3,0.4C504.3,112.1,505.4,111.6,506.4,111.2z M517.3,110.7c-1.4,0.1-2.7,0.3-4.1,0.5c0,0-0.1,0-0.1,0
		c0.4-0.1,0.8-0.3,1.2-0.4c0.5-0.1,1-0.2,1.5-0.3c0.8,0,1.6-0.1,2.3-0.1C517.9,110.5,517.6,110.6,517.3,110.7z M521.6,108.7
		C521.6,108.7,521.5,108.7,521.6,108.7c-0.3,0.1-0.5,0.1-0.8,0.1c0.1,0,0.2-0.1,0.3-0.1c0.2,0,0.3-0.1,0.5-0.1
		C521.6,108.6,521.6,108.6,521.6,108.7z M513.4,109.8c-1.1,0.1-2.2,0.2-3.3,0.4c0,0,0,0-0.1,0c-0.1,0-0.2,0-0.3,0
		c0.6-0.1,1.3-0.2,1.9-0.3c0.6-0.1,1.3-0.1,1.9-0.1C513.5,109.8,513.4,109.8,513.4,109.8z M501.2,114.3c0.2,0,0.3-0.1,0.5-0.1
		c-0.4,0.2-0.7,0.4-1.1,0.6C500.7,114.7,500.9,114.5,501.2,114.3C501.1,114.4,501.1,114.3,501.2,114.3z M528.3,115.7
		c0.5,0,1-0.1,1.3-0.2c0.4-0.1,0.4-0.6,0.1-0.8c-2.9-1.5-6.1-2-9.3-2.3c0.4-0.5,0.8-1.1,1.1-1.6c0.9,0.2,1.7,0.4,2.6,0.7
		c3.4,1,6.6,2.4,9.5,4.5c0.4,0.3,0.7,0.5,1,0.8c0,1,0.3,1.9,0.6,2.9c-1.4-2.1-3.3-3.6-6.4-3.8c-0.2,0-0.4,0.1-0.4,0.3
		C528.3,116,528.3,115.9,528.3,115.7z M530.7,109.1c0.3,0.3,0.9,1,0.4,1.4c-0.4,0.4-1.3-0.2-0.3-0.3c0.5,0,0.4-0.8,0-0.8
		c0,0-0.1,0-0.1,0c0,0,0,0,0,0c0,0,0,0,0,0c-0.1,0-0.2,0-0.4,0c0.1-0.2,0.2-0.4,0.3-0.6C530.5,109,530.6,109,530.7,109.1z
		 M531.8,111.5c-0.1,0.3,0.1,0.5,0.3,0.6c1.7,0.3,2.9-0.8,4.4-1.4c-0.8,0.7-1.8,1.1-2.9,1.6c-0.4,0.2-0.3,0.7,0.1,0.8
		c0.5,0,1,0.1,1.4,0.1c0.1,0.1,0.2,0.1,0.4,0c0,0,0,0,0,0c0.2,0,0.5,0,0.7,0.1c-0.2,0.4-0.4,0.7-0.7,0.9c0,0,0,0,0,0
		c-0.2,0-0.4,0-0.7,0c-0.5,0-0.6,0.8-0.1,0.8c6.1,0.2,7.9,4.5,7.7,9.6c0-0.1-0.1-0.3-0.1-0.4c-1.1-3.4-3.3-8-7.3-8.6
		c-0.1,0-0.2,0-0.3,0.1c-1.7-1.4-3.7-2.5-5.7-3.4c0.1-0.5,0.3-0.9,0.5-1.4c0.2,0.2,0.5,0.4,1,0.4c0.7,0.1,1.3-0.4,1.5-1
		c0.1-0.3,0.1-0.5,0-0.8c0,0,0,0,0.1,0c0.4-0.3,0.8-0.6,1.2-0.9C532.6,109.7,532.1,110.6,531.8,111.5z M545.8,119.3
		c0.4,1.9,0.4,4,0.2,6c-0.2-2.2-0.8-4.4-2.2-6.3c-0.3-0.4-0.9,0.1-0.6,0.5c2.5,3.5,2.5,8,1.2,12.2c-0.9,1.1-1.8,2.1-2.8,3.1
		c0.4-1.2,0.6-2.5,0.8-3.8c0.1-0.5,0.1-1,0.2-1.5c1.3-6.9,0.8-13.9-6.2-15c0.2-0.2,0.3-0.4,0.4-0.6c0,0,0.1,0,0.2,0
		c3.2,0.1,6.4,1.8,8.4,4.3C545.6,118.6,545.7,118.9,545.8,119.3z M537.7,118.7c-0.5-0.7-1.1-1.3-1.7-1.9c3.2,1.1,5,5.4,5.8,8.4
		c0.4,1.5,0.3,3,0.1,4.5c-0.2,0.8-0.4,1.6-0.6,2.4C541.5,127.3,540.7,122.5,537.7,118.7z M540.4,138.1c0.2-0.5,0.5-1,0.6-1.6
		c0.9-0.9,1.7-1.8,2.5-2.7c-0.9,2.1-2.1,4.1-3.6,5.9c0.1-0.3,0.2-0.6,0.2-0.9C540.4,138.5,540.4,138.3,540.4,138.1z M528.6,116.7
		c0,0,0.1,0,0.1,0c4.1,0.2,5.9,3.1,7.4,6.3c-1-0.8-2.2-1.5-3.2-2.3C531.6,119.7,529.5,118.4,528.6,116.7z M539.6,128.5
		c0-0.1,0-0.1,0-0.2c0-1-0.3-2-1-2.9c-0.3-0.4-0.7-0.8-1-1.1c-0.4-0.8-0.7-1.6-1.1-2.4c0.2-0.1,0.3-0.3,0.2-0.5
		c-0.5-1.2-1-2.4-1.2-3.7c1.8,1.7,3.2,3.9,4.1,6.3c0.8,2.2,1,4.6,0.9,7c-0.2-0.7-0.5-1.4-0.8-2.1
		C539.7,128.6,539.7,128.6,539.6,128.5z M546.2,129c0.1-0.4,0.2-0.7,0.2-1.1c0.5-2.3,0.7-4.9,0.4-7.4c0.4,0.9,0.6,1.8,0.7,2.8
		C547.7,125.4,547.1,127.3,546.2,129z M533.4,103.8c-0.8,1.7-1.4,3.4-1.8,5c-0.1-0.2-0.3-0.4-0.4-0.5c-0.1-0.1-0.2-0.2-0.3-0.3
		C531.6,106.6,532.4,105.2,533.4,103.8z M491.9,118.2c-2.9-0.5-6.4-1.5-7.9-4.3c0-0.1-0.1-0.2-0.1-0.3c-0.2-0.5-0.3-1-0.3-1.5
		c0.1-0.9,0.6-1.8,1.2-2.6c1.6-1.9,3.9-2.2,6.2-2.5c0.8-0.1,1.5-0.2,2.3-0.4c-0.5,0.3-0.9,0.7-1.1,1.3c-0.2,0.5,0.6,0.8,0.8,0.3
		c0.6-1.4,2.8-1.7,4.1-1.9c2.3-0.4,4.7-0.4,7.1-0.3c3.9,0.1,7.8,0.5,11.7,0.9c0.5,0.1,0.6-0.8,0.1-0.8c-4.1-0.4-8.3-0.8-12.5-0.9
		c1.2-0.2,2.3-0.3,3.5-0.4c5.1-0.5,10.4-0.7,15.5,0.1c2.4,0.4,4.4,1.3,6.4,2.6c0.3,0.2,0.7,0.5,1,0.7c-0.2,0.5-0.5,1-0.7,1.5
		c-0.1,0-0.2,0.1-0.3,0.1c-0.2,0.2-0.2,0.4,0,0.6c-0.2,0.5-0.4,1.1-0.5,1.6c-2-0.8-4-1.5-6.2-2.1c1.6-0.2,3.1-0.4,4.6-0.8
		c0.4-0.1,0.4-0.8,0-0.8c-1.5-0.1-2.9-0.1-4.4,0.1c0-0.2,0.1-0.4,0.1-0.6c0.7-0.3,1.3-0.7,1.9-1c0.3-0.2,0.5-0.3,0.8-0.5
		c0.3-0.2,0.3-0.7-0.1-0.8c-2.9-0.5-5.7,0.9-8.4,1.6c-3.4,0.9-6.8,1.5-10.1,2.6c-0.2,0.1-0.3,0.3-0.2,0.4c0,0,0,0,0,0
		c-0.7-0.1-1.4-0.2-2.2-0.4c-2.8-0.6-5.6-1.2-8.4-0.9c-1.7,0.2-3.8,1.1-4.5,2.8c-1.1,2.6,5.7,2.3,6.7,2.2c0.1,0,0.1,0,0.2,0
		c-1.5,0.2-3,0.4-4.5,0.5c-0.5,0-0.4,0.8,0.1,0.8c1.9-0.2,3.8-0.4,5.8-0.7c-0.5,0.4-1,0.9-1.5,1.3c-3.3,0.4-9.9,0.9-9.7-2.3
		c0-0.5-0.8-0.6-0.8-0.1c-0.2,4,6.2,3.5,9.6,3.2c-0.4,0.3-0.7,0.7-1,1c-0.3,0.2-0.6,0.5-0.9,0.8C494.1,118.5,493,118.4,491.9,118.2z
		 M501.5,167.9c0.1-0.9,0.3-1.8,0.8-2.8c0,0,0,0,0-0.1c1.5,0.2,3,0.5,4.5,0.6c0.8,0.1,1.8,0.1,2.6-0.2c-0.2,0.7-0.3,1.3-0.2,2
		C506.7,168.1,503.7,168.9,501.5,167.9z M501.5,168.7c0.3,0.1,0.5,0.2,0.8,0.2c2.2,0.5,4.8-0.1,7.1-0.7c0.1,0.5,0.3,0.9,0.5,1.3
		c-2.3,0.1-4.7-0.2-7.1,0c-0.4,0-0.8,0.1-1.2,0.2C501.5,169.4,501.5,169.1,501.5,168.7z M502.2,170.5c2.7-0.4,5.4,0,8.1-0.1
		c0.4,0.7,1,1.4,1.5,2c1.1,1.2,2.3,2.2,3.6,3.1c0.4,0.3,0.8,0.6,1.2,0.8c-0.8-0.1-1.6-0.1-2.4-0.2c-0.2,0-0.5,0-0.7-0.1
		c-3.1-0.2-6.2-0.5-9.3-0.8c0-0.1,0-0.1-0.1-0.2c-0.2-0.3-0.5-0.6-0.7-0.9c-0.1-0.1-0.2-0.2-0.2-0.4c0-0.1-0.1-0.1-0.1-0.2
		c0-0.2-0.1-0.4-0.3-0.4c-0.1-0.1-0.1-0.2-0.2-0.3c0-0.1-0.1-0.1-0.1-0.2c-0.2-0.3-0.3-0.7-0.4-1c-0.1-0.4-0.3-0.8-0.4-1.1
		C501.9,170.6,502,170.5,502.2,170.5z M523.6,160.6c-0.2,3.3-0.1,6.7-0.8,10c-1.1-1.6-2.1-3.4-3.2-5.1c0.8-0.9,0.8-2.4,0.6-3.4
		c-0.4-1.7-1.7-2-3.1-1c-0.1,0.1-0.2,0.2-0.1,0.4c-0.5,0.3-0.8,0.7-1.1,1.2c-0.3,0.7,0,1.5,0.3,2.1c0.6,1.1,1.7,1.8,2.8,1.2
		c1.2,1.9,2.3,3.8,3.6,5.6c-0.4,1.7-1.1,3.2-2,4.7c-0.1,0.1-0.2,0.2-0.2,0.3c0,0-0.1,0-0.1,0c-0.6-0.1-1.2-0.1-1.8-0.2
		c-0.7-0.4-1.4-0.9-2.1-1.4c-1.1-0.8-2.2-1.6-3.2-2.6c-1.2-1.1-2.5-2.7-2.9-4.4c0.2,0,0.4-0.1,0.6-0.1c0.5-0.1,0.4-0.9-0.1-0.8
		c-0.2,0-0.4,0.1-0.6,0.1c0-0.5,0-1.1,0.2-1.6c0-0.1,0-0.3,0-0.3c0.1,0,0.2-0.1,0.2-0.2c0.5-1,0.7-2,0.8-3.1c0,0,0-0.1,0-0.1
		c0.1-1.1,0.1-2.2,0.2-3.2c0-0.1,0-0.1,0-0.2c0-0.1,0-0.2,0-0.2c0.2,0,0.4,0.1,0.6,0.1c0.2,0,0.4,0.1,0.6,0.1c3.6,0.6,7.4,1,11,0.6
		c0.1,0,0.1,0,0.2,0C523.7,159.6,523.6,160.1,523.6,160.6z M517.1,164.7c-0.3-0.4-0.5-0.9-0.6-1.4c-0.1-0.7,0.8-1.2,1.3-1.5
		c0.2-0.1,0.2-0.3,0.2-0.4c0.3-0.2,0.6-0.2,0.9,0c0.4,0.2,0.5,0.9,0.5,1.3c0.1,0.7,0,1.4-0.3,2c-0.2-0.3-0.5-0.7-0.7-1
		c-0.3-0.4-0.9,0.1-0.6,0.5c0.3,0.4,0.5,0.7,0.8,1.1C518.1,165.5,517.5,165.2,517.1,164.7z M530.9,155.2c-2.2,1.9-4.9,2.8-7.7,3.2
		c-0.1,0-0.1,0-0.2,0c-3,0.4-6.1,0.1-9.2-0.4c-1.7-0.3-3.3-0.6-4.8-0.9c-0.2,0-0.5-0.1-0.7-0.1c-3.9-0.8-7.5-2-10.6-4.1
		c0.6,0.1,1.1,0.3,1.6,0.4c0.2,0,0.4,0.1,0.5,0.1c2.7,0.4,5.6,0.3,8.1-0.5c3.2-1,5.7-3.5,7.8-6c1-1.3,1.7-2.7,2-4.1
		c1-0.3,1.9-0.8,2.6-1.3c0.5-0.3,0.9-0.7,1.2-1c2.6-3.2,3.7-9.1-1.3-10.6c-0.7-0.2-1.3-0.2-2.1-0.2c-3.8,0.3-7.9,3.8-7.5,7.6
		c0,0.5,0.2,0.9,0.3,1.3c-0.3,1.3-0.3,2.7,0.7,3.6c1.2,1.1,3.2,1.2,5.2,0.8c-0.4,1.4-1.2,2.8-2.3,4.1c-2,2.4-4.4,4.4-7.4,5.2
		c-2.4,0.6-5,0.6-7.4,0.3c-0.6-0.1-1.2-0.2-1.8-0.4c-1-0.3-1.9-0.6-2.7-1.2c-0.8-0.7-1.6-1.5-2.3-2.4c-1.5-1.9-2.6-4.1-3.3-6.4
		c0.1,0.2,0.3,0.4,0.5,0.5c0.3,0.2,0.5,0.3,0.7,0.3c0.1,0,0.2,0,0.3,0c0.3,0.1,0.7,0,1-0.3c0.9-0.3,0.7-2.3,0.5-2.9
		c0-0.1,0-0.1,0-0.2c-0.1-0.6-0.3-1.2-0.6-1.6c-0.2-0.3-0.5-0.5-0.8-0.5c-0.2-0.1-0.4-0.1-0.5,0c-0.2,0.1-0.4,0.3-0.5,0.5
		c-0.2,0.2-0.4,0.4-0.5,0.6c-0.1,0.1-0.1,0.2-0.2,0.3c-0.2,0.4-0.3,0.8-0.3,1.3c-0.6-2.8-0.6-5.7-0.1-8.6c0.6-3.8,2.2-7.1,4.5-9.9
		c0.1-0.1,0.2-0.3,0.3-0.4c0.6-0.6,1.2-1.2,1.8-1.8c2.1,0.1,4.2,0,6.2-0.1c1.9-0.1,3.9-0.3,5.9-0.7c0,0.4,0.2,0.8,0.5,1.1
		c1.1,1.1,3.5,1.6,4.9,1.2c0.5-0.2,0.2-0.9-0.3-0.7c-0.9,0.3-2.9,0-3.8-0.8c-0.3-0.2-0.4-0.5-0.4-0.9c0.8-0.2,1.7-0.4,2.5-0.6
		c0.1,0,0.2-0.1,0.3-0.1c1.2-0.3,2.3-0.8,3.4-1.3c1.6-0.8,3.5-2,5-3.5c1.6,0.2,3.2,0.4,4.8,0.7c-0.1,0.1-0.1,0.1-0.1,0.2
		c-0.3,1.5,1.5,1.8,3.1,1.7c0.3,1.5,1.3,2.7,2.5,3.7c-2-1.7-4.1-3.2-6.4-4.4c-0.2-0.1-0.4,0-0.5,0.2c-0.1,0.2-0.1,0.4,0.1,0.6
		c0,0,0,0,0,0c6.2,3.2,10.9,8.6,15.3,13.9c-0.3,1-0.8,2-1.3,3c-0.9,1.9-1.8,4.2,0.1,5.7c0.4,0.3,0.9-0.3,0.5-0.7
		c-2.1-1.7,0.3-4.9,1.1-6.7c0.1-0.3,0.3-0.6,0.4-0.9c0,0,0.1,0,0.1-0.1c0.1,0.2,0.1,0.4,0.2,0.5c0.4,1,0.7,2.2,0.7,3.4
		c-0.1,0.5-0.1,1-0.2,1.4c0,0.1-0.1,0.3-0.1,0.4c-0.2-0.2-0.7-0.2-0.7,0.2c0,0.4-0.1,0.7-0.1,1.1c0,0.2,0.2,0.4,0.4,0.5
		c-0.4,1-0.7,1.9-1.1,2.7c-0.2,0.4,0.3,0.7,0.6,0.5c0,0,0,0.1,0,0.1c-0.6,0.6-1.2,1.2-1.8,1.7c-0.3,0.2-0.5,0.4-0.8,0.6
		c-0.4,0.3,0.1,0.9,0.5,0.6c0,0,0.1-0.1,0.1-0.1c0.5-0.4,1-0.8,1.5-1.3C537.1,147.3,534.7,152,530.9,155.2z M511.7,139.8
		C511.7,139.7,511.7,139.7,511.7,139.8c0.3,0.2,0.6,0.5,1,0.7c0.1,0.1,0.3,0.2,0.4,0.2c1.1,0.5,2.7,1,4,0.9c0,0,0,0.1,0,0.1
		c0,0.1,0,0.2,0,0.2c-0.5,0.1-1,0.2-1.4,0.3C513.8,142.5,511.6,142.1,511.7,139.8z M522.9,133.3c0.6,2.2-0.4,4.7-1.8,6.4
		c-0.7,0.9-1.9,1.6-3.2,2c0-0.1,0-0.1,0-0.2c0.1,0,0.2,0,0.2-0.1c0.9-0.3,2.1-1.6,1.1-2.5c-0.5-0.4-1.1-0.6-1.8-0.7
		c-0.1-0.1-0.1-0.3-0.2-0.4c-0.1-0.2-0.3-0.3-0.5-0.2c-0.3,0.2-0.3,0.3-0.5,0.6c-0.3,0-0.6,0-0.9,0.1c-0.3,0-0.5,0.5-0.2,0.7
		c0.6,0.3,1.2,0.6,1.8,0.8c0,0.3,0.1,0.6,0.1,0.9c-0.2,0-0.5,0-0.7,0c-1.1-0.1-2.3-0.4-3.3-0.9c-0.6-0.3-1-0.8-1.3-1.4
		c0.6-2.7,2.7-5.3,5.6-5.4c0.5,0,0.6-0.8,0.1-0.8c-2.8,0.1-4.7,1.9-5.8,4.4c0,0.1-0.1,0.2-0.1,0.3c0-0.2,0-0.4,0-0.7
		C512,131.6,521.2,127.3,522.9,133.3z M518.2,139.3c0.1,0,0.2,0.1,0.3,0.1c-0.3,0-0.5-0.1-0.8-0.2c0,0,0-0.1,0-0.1
		C517.9,139.2,518.1,139.2,518.2,139.3z M518.3,140.5c-0.1,0.1-0.2,0.1-0.3,0.1c0-0.2,0-0.4,0-0.5c0.2,0.1,0.5,0.1,0.7,0.1
		C518.5,140.3,518.4,140.4,518.3,140.5z M491.2,139.8C491.2,139.8,491.2,139.9,491.2,139.8c-0.1,0.1-0.1,0.1-0.2,0.2
		c0-0.1,0-0.1,0-0.2c0,0,0,0,0,0c0,0,0,0,0,0C491.1,139.8,491.2,139.8,491.2,139.8z"/>
	<path class="st1" d="M497.5,142.7C497.5,142.7,497.5,142.7,497.5,142.7C497.5,142.7,497.5,142.7,497.5,142.7
		C497.6,142.7,497.6,142.7,497.5,142.7c0.1,0,0.1,0,0.2,0c0.9-0.3,1.6-1.1,1.8-2c0.2-0.9-0.3-2.4-1.3-2.6c-0.2,0-0.4,0-0.5,0
		c0,0,0,0,0,0c-0.2-0.2-0.5-0.4-0.9-0.5c-0.7-0.1-1.1,0.2-1.4,0.7C494.1,139.8,495.4,143.3,497.5,142.7z M498.4,139.1
		c0,0.1,0,0.1,0.1,0.2c-0.1-0.1-0.1-0.2-0.2-0.3c0,0,0-0.1,0-0.1C498.3,139,498.3,139,498.4,139.1z M497.2,141.5c0,0,0.1,0,0.1-0.1
		c0,0,0,0,0,0C497.3,141.4,497.2,141.5,497.2,141.5z"/>
</g>
</svg>
